<svg xmlns="http://www.w3.org/2000/svg" xml:space="preserve" viewBox="0 0 2475 1650"><path d="M0 0h2475v1650H0z" style="fill:transparent"/><linearGradient id="a" x1="-1618.187" x2="583.749" y1="852.728" y2="852.728" gradientTransform="matrix(-1 0 0 1 774 0)" gradientUnits="userSpaceOnUse"><stop offset="0" style="stop-color:#dae3fe"/><stop offset="1" style="stop-color:#e9effd"/></linearGradient><path d="M1312.553 1444.501s746.088 7.401 953.906-159.07c207.818-166.47 129.594-332.431-29.53-379.445-159.125-47.014-186.266-95.906-100.645-161.858 85.622-65.952 194.366-201.329 13.809-337.375s-386.58 59.362-547.956 33.414-97.461-113.341-309.683-52.987-165.43-115.37-336.042-131.297C785.8 239.955 803.287 438.656 627.799 363.651c-175.489-75.004-319.028-64.654-394.475 54.462-75.446 119.116-58.879 357.379 106.638 452.991s163.958 11.261 102.099 105.213-117.327 402.914 164.28 447.042c281.608 44.129 706.212 21.142 706.212 21.142" style="fill:url(#a)"/><path d="m576.929 482.931-47.373 101.738a97.12 97.12 0 0 0 1.325 84.719l80.353 159.347a97.1 97.1 0 0 1 9.266 58.529l-13.446 87.175a97.11 97.11 0 0 0 31.663 87.567c39.316 34.751 99.126 31.986 135.069-6.243l56.989-60.615c26.716-28.417 33.84-70.06 18.088-105.741l-51.952-117.678a97.1 97.1 0 0 1-7.886-47.878l15.1-168.727c3.481-38.897-16.676-76.096-51.164-94.418l-42.432-22.543c-49.135-26.103-110.114-5.67-133.6 44.768" style="fill:#bdd0fb"/><path d="M712.909 1108.243q-.405.027-.822-.014a4.96 4.96 0 0 1-4.446-5.427c25.142-253.211-46.787-521.912-53.177-535.455a4.962 4.962 0 0 1 6.788-7.071c1.433 1 2.38 1.66 6.585 16.154 1.938 6.681 5.134 18.349 9.35 36 6.335 26.516 15.724 69.73 24.489 125.016 14.646 92.382 29.282 230.928 15.837 366.337a4.96 4.96 0 0 1-4.604 4.46m-57.344-539.838.011.008zm-.009-.006.002.001zM2000.968 1157.146c25.927-40.767 35.952-86.023 31.052-125.58-4.381-35.361 4.828-71.195 26.298-99.589a140 140 0 0 0 6.479-9.334c31.182-49.03 26.419-107.883-10.639-131.451s-92.378-2.928-123.56 46.102c-6.377 10.026-11.247 20.461-14.645 30.92-10.844 33.381-33.487 61.855-64.288 78.713-27.526 15.066-53.04 38.604-72.478 69.168-28.991 45.585-38.101 96.784-28.694 139.35 3.558 16.101 4.195 32.773 1.753 49.068-4.058 27.077 4.949 52.901 25.754 66.133 22.444 14.274 52.337 9.898 76.113-8.53 13.454-10.428 28.789-18.073 45.032-23.204 38.347-12.111 75.609-40.548 101.823-81.766" style="fill:#91b3fa"/><path d="M2033.962 851.603c-15.767 35.483-32.661 70.43-49.921 105.201-4.311 8.695-8.761 17.319-13.183 25.957l-6.636 12.957-6.744 12.901c-4.529 8.583-8.94 17.229-13.567 25.762l-13.878 25.597c-9.47 16.947-18.795 33.973-28.58 50.742-4.88 8.391-9.596 16.876-14.647 25.169l-15.034 24.942c-20.381 33.052-41.601 65.606-64.428 97.024l-1.364-.97 16.184-24.157 4.057-6.028 3.907-6.13 7.79-12.273 7.812-12.256c2.611-4.08 5.071-8.258 7.614-12.382 5.031-8.282 10.126-16.524 15.103-24.838 19.693-33.389 38.942-67.039 57.495-101.082 9.146-17.092 18.438-34.105 27.466-51.262l6.806-12.848 6.698-12.906c4.471-8.601 8.942-17.203 13.325-25.849a3798 3798 0 0 0 26.358-51.854c8.742-17.308 17.323-34.703 25.847-52.118zM752.753 1034.005c-30.278-44.365-72.115-74.451-114.675-86.791-38.046-11.031-70.615-36.153-90.207-70.537a156 156 0 0 0-6.695-10.712c-36.415-53.356-98.627-74.298-138.955-46.774-40.328 27.523-43.5 93.089-7.085 146.444 7.446 10.911 15.971 20.462 25.166 28.52 29.346 25.716 48.507 61.334 52.222 100.193 3.321 34.727 16.179 71.114 38.879 104.375 33.856 49.607 82.166 81.365 129.777 90.421 18.009 3.425 35.32 10.086 50.896 19.726 25.882 16.019 56.214 18.142 78.855 2.69 24.424-16.67 33.063-49.127 24.663-81.497-4.753-18.318-5.838-37.335-3.958-56.18 4.44-44.486-8.27-95.023-38.883-139.878" style="fill:#bdd0fb"/><path d="M455.08 866.314c29.335 31.667 57.628 64.251 85.581 97.131 6.992 8.217 13.851 16.545 20.737 24.851l10.327 12.461 10.222 12.547c6.783 8.391 13.681 16.689 20.369 25.157l20.064 25.402c13.16 17.105 26.464 34.099 39.305 51.448 6.433 8.665 13.033 17.203 19.29 26l18.888 26.296c24.828 35.314 48.78 71.27 70.867 108.366l-1.589.968-17.582-27.126-4.379-6.789-4.549-6.68-9.122-13.34-9.095-13.355c-3.023-4.457-6.213-8.802-9.311-13.208-6.255-8.771-12.44-17.591-18.752-26.321-25.474-34.76-51.41-69.181-78.053-103.062-13.451-16.839-26.756-33.792-40.325-50.538l-10.142-12.587-10.247-12.502c-6.826-8.339-13.653-16.679-20.564-24.949a4210 4210 0 0 0-41.416-49.667c-13.848-16.521-27.857-32.915-41.909-49.259z" style="fill:#91b3fa"/><path d="M1573.159 1223.277c-90.715-51.229-136.543-184.903-98.612-235.023 32.897-43.468 117.25-8.838 137.728-49.258 24.598-48.552-84.513-123.369-61.361-180.176 22.206-54.484 138.597-24.971 161.982-78.868 24.979-57.569-94.437-122.066-78.235-204.002 13.512-68.335 116.882-126.178 211.032-108.091 76.62 14.719 153.951 81.035 149.437 140.853-6.161 81.649-160.56 94.841-164.633 174.505-3.759 73.511 125.304 109.336 116.658 174.613-9.307 70.263-165.831 81.583-166.559 138.06-.639 49.623 119.913 62.799 123.376 112.599 4.579 65.854-195.923 190.964-330.813 114.788" style="fill:#bdd0fb"/><path d="M1811.115 468.208c-8.213 60.034-18.128 119.766-28.779 179.354-5.236 29.813-10.988 59.522-16.622 89.258-2.871 14.856-5.938 29.672-8.905 44.51-3.001 14.829-5.918 29.679-9.132 44.464l-9.532 44.378c-3.288 14.769-6.5 29.556-9.902 44.299l-2.524 11.063-2.619 11.042-5.238 22.084-5.281 22.072-5.589 21.999c-14.897 58.627-30.762 117.167-51.617 173.96l-1.127-.387c16.265-58.204 29.62-117.112 42.792-176.072l4.924-22.111 4.791-22.147 4.833-22.135 2.416-11.067 2.322-11.091c3.052-14.799 6.295-29.552 9.46-44.324l9.255-44.375 36.994-177.544c12.315-59.198 24.781-118.375 37.912-177.449z" style="fill:#91b3fa"/><path d="m1523.239 1012.994-5.483-1.517a1.191 1.191 0 0 1 .634-2.295l.021.006.062.019 5.336 1.61.054.016a1.124 1.124 0 0 1-.624 2.161M1507.009 1007.625l-10.33-4.879a1.451 1.451 0 1 1 1.239-2.624l.024.011.13.065 9.978 4.998.114.057a1.32 1.32 0 0 1-1.155 2.372M1486.851 996.909l-9.25-6.721a1.67 1.67 0 1 1 1.964-2.703l.016.012.123.093 8.904 6.707.112.085a1.571 1.571 0 0 1-1.869 2.527M1468.963 982.695l-7.995-8.18a1.865 1.865 0 1 1 2.668-2.608l.016.016.109.115 7.652 8.104.099.104a1.767 1.767 0 0 1-2.549 2.449M1453.639 965.731l-6.647-9.315a2.06 2.06 0 1 1 3.368-2.374l.092.134 6.316 9.182.083.121a1.962 1.962 0 0 1-3.212 2.252M1441.039 946.639l-5.244-10.179a2.255 2.255 0 1 1 4.01-2.066l.012.024.075.152 4.93 9.989.068.137a2.157 2.157 0 0 1-3.851 1.943M1431.269 925.926l-3.784-10.818a2.45 2.45 0 0 1 4.627-1.618l.01.028.057.173 3.493 10.566.051.155a2.352 2.352 0 0 1-4.454 1.514M1424.485 904.039l-2.207-11.261a2.58 2.58 0 0 1 5.063-.993l.005.027.033.18 2.023 10.928.032.175a2.52 2.52 0 0 1-4.949.944M1420.88 881.381l-.556-11.486a2.698 2.698 0 1 1 5.391-.261l.001.028.007.203.42 11.092.007.197a2.638 2.638 0 0 1-5.27.227M1420.617 858.424l1.039-11.424a2.819 2.819 0 0 1 5.613.51l-.003.03-.018.177-1.124 11.06-.018.175a2.758 2.758 0 0 1-5.489-.528M1423.408 835.666l2.434-11.205a2.938 2.938 0 0 1 5.741 1.247l-.007.031-.039.169-2.475 10.841-.038.169a2.876 2.876 0 0 1-5.616-1.252M1428.926 813.421l3.698-10.846a3.058 3.058 0 0 1 5.787 1.973l-.01.03-.056.157-3.701 10.493-.055.157a2.998 2.998 0 0 1-5.663-1.964M1436.899 791.946l4.815-10.391a3.176 3.176 0 1 1 5.763 2.671l-.014.03-.068.143-4.788 10.053-.068.143a3.115 3.115 0 0 1-5.64-2.649M1447.034 771.418l5.791-9.872a3.295 3.295 0 1 1 5.685 3.335l-.018.03-.078.13-5.739 9.551-.078.13a3.236 3.236 0 0 1-5.563-3.304M1459.056 751.949l6.649-9.312a3.41 3.41 0 0 1 5.55 3.962l-.019.027-.086.117-6.568 9.013-.085.118a3.354 3.354 0 0 1-5.441-3.925M1472.765 733.639l7.421-8.698a3.449 3.449 0 0 1 5.247 4.477l-.008.009-.09.105-7.27 8.461-.091.106a3.43 3.43 0 0 1-4.835.366 3.42 3.42 0 0 1-.374-4.826M1487.947 716.549l8.082-8.082a3.489 3.489 0 0 1 4.933 4.933l-.009.009-.096.095-7.918 7.863-.096.095a3.47 3.47 0 0 1-4.905-.017 3.457 3.457 0 0 1 .009-4.896M1504.422 700.697c2.848-2.537 5.767-4.987 8.682-7.444a3.528 3.528 0 1 1 4.548 5.396l-.009.007-.055.046c-2.856 2.391-5.718 4.776-8.507 7.242a3.51 3.51 0 0 1-4.953-.304 3.496 3.496 0 0 1 .294-4.943M1522.051 686.138l9.192-6.78a3.567 3.567 0 1 1 4.235 5.741l-.01.008-.104.076-9.008 6.596-.104.076a3.55 3.55 0 0 1-4.958-.766 3.54 3.54 0 0 1 .757-4.951M1540.666 672.916l9.643-6.102a3.607 3.607 0 1 1 3.857 6.096l-.011.007-.107.067-9.449 5.934-.107.068a3.59 3.59 0 0 1-4.945-1.13 3.58 3.58 0 0 1 1.119-4.94M1560.158 661.055l10.042-5.415a3.646 3.646 0 1 1 3.461 6.419l-.011.006-.11.059-9.84 5.262-.111.059a3.627 3.627 0 0 1-4.908-1.488 3.616 3.616 0 0 1 1.477-4.902M1580.422 650.572l10.39-4.719a3.685 3.685 0 1 1 3.048 6.712l-.012.005-.113.051-10.18 4.581-.113.051a3.665 3.665 0 0 1-4.847-1.838 3.656 3.656 0 0 1 1.827-4.843M1601.358 641.485l10.688-4.015a3.724 3.724 0 1 1 2.62 6.974l-.012.005-.116.043-10.47 3.892-.116.043a3.705 3.705 0 0 1-4.764-2.182 3.695 3.695 0 0 1 2.17-4.76M1622.864 633.81l10.935-3.302a3.764 3.764 0 1 1 2.176 7.208l-.013.004-.118.035-10.71 3.193-.118.036a3.744 3.744 0 0 1-4.658-2.519 3.734 3.734 0 0 1 2.506-4.655M1644.839 627.566l11.134-2.58a3.803 3.803 0 1 1 1.717 7.411l-.013.003-.121.028-10.901 2.487-.121.028a3.784 3.784 0 0 1-4.531-2.848 3.776 3.776 0 0 1 2.836-4.529M1667.175 622.772l11.272-1.827a3.822 3.822 0 0 1 1.223 7.545l-.122.02-11.025 1.79-.123.02a3.825 3.825 0 0 1-1.225-7.548M1689.773 619.496l11.368-1.078a3.798 3.798 0 1 1 .717 7.563l-.116.011-11.118 1.077-.124.012a3.81 3.81 0 0 1-.735-7.585zM1712.549 617.713l11.423-.329a3.775 3.775 0 0 1 .217 7.547l-.117.004-11.172.345-.125.004a3.786 3.786 0 1 1-.234-7.57zM1735.397 617.433l11.415.43a3.752 3.752 0 1 1-.283 7.498l-.118-.004-11.164-.398-.126-.004a3.764 3.764 0 0 1 .268-7.522zM1758.204 618.677l11.357 1.199a3.728 3.728 0 0 1-.783 7.415l-.119-.012-11.106-1.15-.126-.013a3.74 3.74 0 1 1 .771-7.44zM1780.867 621.464l11.243 1.977a3.704 3.704 0 1 1-1.284 7.298l-.12-.021-10.993-1.91-.127-.022a3.718 3.718 0 0 1 1.272-7.325zM1803.277 625.81l11.078 2.764a3.682 3.682 0 1 1-1.783 7.144l-.12-.03-10.829-2.678-.127-.031a3.694 3.694 0 0 1 1.773-7.171zM1825.329 631.733l10.857 3.557a3.659 3.659 0 0 1-2.277 6.953l-.12-.039-10.61-3.452-.127-.041a3.671 3.671 0 0 1 2.271-6.981zM1846.909 639.241l10.56 4.264a3.635 3.635 0 1 1-2.722 6.742l-.076-.031-10.394-4.172-.092-.037a3.647 3.647 0 0 1 2.717-6.769zM1867.906 647.987l10.348 4.616a3.612 3.612 0 1 1-2.944 6.598l-.023-.01-10.29-4.565-.038-.017a3.625 3.625 0 0 1 2.939-6.626zM1888.547 657.276l10.273 4.654.019.008a3.59 3.59 0 0 1 1.788 4.75 3.583 3.583 0 0 1-4.744 1.791l-10.312-4.646a3.6 3.6 0 0 1 2.958-6.566l.007.003zM1909.107 666.491l10.332 4.389.068.029a3.565 3.565 0 0 1 1.888 4.676 3.56 3.56 0 0 1-4.669 1.891l-10.469-4.421a3.578 3.578 0 0 1 2.783-6.591l.007.003zM1929.845 675.015l10.503 3.793.125.045a3.54 3.54 0 0 1 2.128 4.534 3.536 3.536 0 0 1-4.527 2.131l-10.752-3.857a3.554 3.554 0 0 1 2.4-6.69l.007.003zM1950.966 682.163l10.74 2.814.191.05a3.517 3.517 0 0 1 2.511 4.294 3.51 3.51 0 0 1-4.287 2.513l-11.118-2.888a3.53 3.53 0 1 1 1.775-6.832l.007.002zM1972.56 687.141l10.946 1.406.26.034a3.494 3.494 0 0 1 3.02 3.91 3.486 3.486 0 0 1-3.903 3.02l-11.46-1.448a3.505 3.505 0 1 1 .879-6.955l.007.001zM1994.5 689.097l10.98-.385.308-.011a3.47 3.47 0 0 1 3.588 3.345 3.463 3.463 0 0 1-3.338 3.588l-11.59.431a3.481 3.481 0 0 1-.259-6.957h.007zM2016.349 687.319l10.661-2.483.336-.078a3.443 3.443 0 0 1 4.136 2.573 3.44 3.44 0 0 1-2.566 4.134l-11.333 2.664a3.457 3.457 0 1 1-1.582-6.729l.007-.002zM2037.385 681.307l10.004-4.507.29-.131a3.423 3.423 0 0 1 2.818 6.237l-10.579 4.792a3.434 3.434 0 0 1-2.834-6.256l.006-.003zM2056.95 671.389l9.065-6.23.24-.165a3.39 3.39 0 0 1 4.712.873 3.377 3.377 0 0 1-.862 4.704l-9.524 6.601a3.411 3.411 0 1 1-3.886-5.608l.011-.008zM2074.534 658.183l7.922-7.662.195-.188a3.318 3.318 0 0 1 4.629 4.756l-8.264 8.093a3.354 3.354 0 0 1-4.694-4.792l.015-.015zM2089.733 642.242l6.6-8.849.156-.209a3.247 3.247 0 0 1 5.219 3.868l-6.855 9.311a3.284 3.284 0 0 1-5.29-3.895l.012-.016zM2102.202 624.049l5.095-9.787.12-.231a3.178 3.178 0 0 1 5.646 2.917l-5.271 10.282a3.215 3.215 0 0 1-5.72-2.932l.009-.018zM2111.572 604.084l3.398-10.49.083-.255a3.106 3.106 0 0 1 5.917 1.896l-3.494 11.021a3.142 3.142 0 1 1-5.992-1.9l.006-.019zM2117.441 582.858l.775-5.452c.232-1.822.583-3.626.719-5.463a3.038 3.038 0 0 1 6.062.433l-.007.099c-.132 1.921-.482 3.826-.715 5.739l-.784 5.735a3.072 3.072 0 1 1-6.088-.833l.002-.016zM2119.472 560.916l-.381-11.035-.008-.242a2.967 2.967 0 0 1 5.928-.223l.469 11.521a3.002 3.002 0 0 1-5.999.245l-.001-.019zM2117.818 538.903l-2.141-10.855-.044-.223a2.897 2.897 0 0 1 5.679-1.138l2.301 11.29a2.932 2.932 0 0 1-5.745 1.171l-.004-.018zM2112.693 517.384l-3.802-10.408-.075-.205a2.825 2.825 0 0 1 5.302-1.955l4.02 10.796a2.861 2.861 0 1 1-5.363 1.997l-.006-.017zM2104.298 496.889l-5.361-9.701-.104-.188a2.755 2.755 0 0 1 4.814-2.68l5.633 10.044a2.79 2.79 0 0 1-4.868 2.73l-.009-.015zM2092.835 477.941l-6.814-8.726-.134-.171a2.685 2.685 0 0 1 4.22-3.317l7.139 9.025a2.72 2.72 0 0 1-4.267 3.375l-.01-.013zM2078.521 461.074l-4.054-3.769c-1.36-1.247-2.674-2.547-4.102-3.718a2.616 2.616 0 0 1 3.305-4.055l.053.043c1.492 1.21 2.87 2.549 4.293 3.838l4.241 3.898a2.65 2.65 0 1 1-3.586 3.902l-.011-.01zM2061.601 446.816l-9.296-6.022-.175-.113a2.544 2.544 0 0 1 2.752-4.277l9.687 6.19a2.578 2.578 0 1 1-2.778 4.346l-.013-.008zM2042.544 435.538l-10.156-4.473-.178-.078a2.472 2.472 0 0 1 1.976-4.529l10.545 4.561a2.508 2.508 0 1 1-1.991 4.605l-.015-.007zM2021.912 427.37l-10.738-2.877-.175-.047a2.346 2.346 0 0 1 1.188-4.537l11.125 2.848a2.41 2.41 0 0 1-1.195 4.668l-.013-.003zM2000.241 422.452l-11.061-1.189-.173-.018a2.22 2.22 0 0 1 .45-4.418l11.422 1.1a2.284 2.284 0 0 1-.438 4.547l-.013-.001zM1978.064 420.944l-11.103.568-.17.009a2.095 2.095 0 0 1-.237-4.183l11.439-.713a2.158 2.158 0 1 1 .268 4.308l-.012.001zM1955.939 422.984l-5.441 1.152-2.722.575c-.911.173-1.803.444-2.706.661l-.08.019a1.97 1.97 0 0 1-.944-3.827c.925-.234 1.835-.521 2.772-.711l2.797-.625 5.596-1.248a2.033 2.033 0 1 1 .885 3.969l-.021.005zM1934.342 428.546l-10.665 3.597-.027.009a1.846 1.846 0 0 1-1.199-3.491l10.698-3.741a1.91 1.91 0 0 1 1.26 3.604l-.01.004zM1912.97 435.806l-10.867 3.366a1.721 1.721 0 0 1-1.037-3.28l.087-.028 10.674-3.437.069-.022a1.783 1.783 0 1 1 1.093 3.395zM1890.985 441.844c-3.751.727-7.552 1.264-11.381 1.537a1.594 1.594 0 0 1-.244-3.181c3.68-.303 7.344-.862 10.977-1.608a1.658 1.658 0 0 1 .667 3.247c-.003.002-.016.004-.019.005M1868.039 443.301c-3.874-.425-7.671-1.335-11.318-2.628a1.469 1.469 0 0 1 .968-2.775c3.463 1.185 7.048 1.999 10.667 2.355a1.532 1.532 0 1 1-.317 3.048M1846.271 435.689a55 55 0 0 1-9.198-7.019 1.345 1.345 0 0 1 1.841-1.96 52 52 0 0 0 8.808 6.568 1.407 1.407 0 1 1-1.438 2.418zM1829.692 419.717c-2.057-3.297-3.655-6.922-4.518-10.755a1.22 1.22 0 0 1 2.376-.548c.832 3.515 2.348 6.866 4.309 9.934a1.282 1.282 0 1 1-2.167 1.369M1825.019 397.185a28.3 28.3 0 0 1 1.768-5.576 1.125 1.125 0 0 1 2.069.883 26 26 0 0 0-1.569 5.145 1.157 1.157 0 1 1-2.268-.452" style="fill:#fff"/><path d="m1842.47 324.509-21.741 40.368-17.992-32.079z" style="fill:#7d97f4"/><path d="m1673.422 203.573 57.517 154.337a11.606 11.606 0 0 0 15.333 6.661l152.781-63.586a4.653 4.653 0 0 0-.083-8.622z" style="fill:#91b3fa"/><path d="m1842.455 324.506-169.033-120.933 144.408 131.271-5.552 11.452z" style="fill:#7d97f4"/><path d="m1803.184 340.863 17.545 24.014-2.899-30.033z" style="fill:#7d97f4"/><path d="m1259.237 438.02-55.605 528.084 105.696 11.129 55.604-528.084c-1.191 11.303-106.885.174-105.695-11.129" style="fill:#91b3fa"/><linearGradient id="b" x1="622.641" x2="339.172" y1="3599.599" y2="3603.442" gradientTransform="rotate(96.01 2232.538 2472.392)" gradientUnits="userSpaceOnUse"><stop offset="0" style="stop-color:#4042e2"/><stop offset="1" style="stop-color:#4f52ff"/></linearGradient><path d="m1230.081 968.889 48.371 5.093c17.052 1.795 31.973-7.185 33.329-20.058l52.916-502.549c1.066-10.123 10.137-17.466 20.261-16.4a5.6 5.6 0 0 1 4.983 6.156l-57.833 549.247c-1.327 12.596-23.236 30.509-47.665 27.937l-67.556-7.113c-23.033-2.425-39.661-23.806-38.41-35.682l57.666-547.661a8.505 8.505 0 0 1 9.349-7.568c8.528.898 14.712 8.539 13.815 17.066l-53.572 508.779c-1.162 11.028 9.739 21.215 24.346 22.753" style="fill:url(#b)"/><path d="M1289.184 962.554q-.118 0-.237-.012a2.25 2.25 0 0 1-2.003-2.473l52.137-495.151a2.251 2.251 0 0 1 4.476.47l-52.137 495.151a2.25 2.25 0 0 1-2.236 2.015M1273.495 960.902q-.118 0-.237-.012a2.25 2.25 0 0 1-2.003-2.473l52.137-495.151a2.255 2.255 0 0 1 2.473-2.003 2.25 2.25 0 0 1 2.003 2.473l-52.137 495.151a2.25 2.25 0 0 1-2.236 2.015M1257.807 959.25q-.118 0-.237-.012a2.25 2.25 0 0 1-2.003-2.473l52.138-495.151a2.255 2.255 0 0 1 2.473-2.003 2.25 2.25 0 0 1 2.003 2.473l-52.138 495.151a2.25 2.25 0 0 1-2.236 2.015M1242.119 957.598q-.118 0-.237-.012a2.25 2.25 0 0 1-2.003-2.473l52.137-495.151a2.26 2.26 0 0 1 2.473-2.003 2.25 2.25 0 0 1 2.003 2.473l-52.137 495.151a2.25 2.25 0 0 1-2.236 2.015M1226.43 955.946q-.118 0-.237-.012a2.25 2.25 0 0 1-2.003-2.473l52.137-495.151a2.251 2.251 0 0 1 4.476.47l-52.137 495.151a2.25 2.25 0 0 1-2.236 2.015" style="opacity:.6;fill:#fff"/><linearGradient id="c" x1="7939.519" x2="7848.749" y1="2082.274" y2="2772.766" gradientTransform="scale(-1 1)rotate(83.99 3230.227 -4463.124)" gradientUnits="userSpaceOnUse"><stop offset="0" style="stop-color:#4042e2"/><stop offset="1" style="stop-color:#4f52ff"/></linearGradient><path d="m1534.658 1363.138 86.736-823.738c2.674-25.391-15.743-48.143-41.134-50.816l-129.082-13.592c-25.391-2.674-48.143 15.743-50.816 41.134l-86.736 823.738c-2.674 25.391 15.743 48.143 41.134 50.816l129.082 13.592c25.392 2.674 48.143-15.743 50.816-41.134" style="fill:url(#c)"/><path d="m1579.337 694.892 9.87-93.739a6.955 6.955 0 0 0-6.189-7.645l-156.392-16.468a6.955 6.955 0 0 0-7.645 6.189l-9.87 93.739a6.955 6.955 0 0 0 6.189 7.645l156.392 16.468a6.956 6.956 0 0 0 7.645-6.189M1573.285 752.368l3.065-29.11a5.656 5.656 0 0 0-5.033-6.218l-158.975-16.74a5.656 5.656 0 0 0-6.218 5.033l-3.065 29.11a5.657 5.657 0 0 0 5.034 6.218l158.975 16.739a5.655 5.655 0 0 0 6.217-5.032" style="fill:#7d97f4"/><linearGradient id="d" x1="967.752" x2="827.601" y1="559.457" y2="989.051" gradientUnits="userSpaceOnUse"><stop offset="0" style="stop-color:#4042e2"/><stop offset="1" style="stop-color:#4f52ff"/></linearGradient><path d="M1124.335 773.719c0 16.966-1.855 33.402-5.434 49.306v.066c-4.573 20.545-11.928 40.029-21.604 58.055-.066 0-.066.066-.066.066-20.877 38.703-52.753 70.645-91.389 91.588-.266.133-.531.33-.796.463a225.3 225.3 0 0 1-35.256 15.243c-.065 0-.132.066-.198.066a227 227 0 0 1-71.707 11.597c-66.537 0-126.381-28.696-167.801-74.423-36.383-40.161-58.65-93.444-58.65-152.028 0-10.14.662-20.147 1.921-29.889 10.471-79.394 62.097-145.799 132.677-177.079.729-.332 1.392-.663 2.12-.993 27.437-11.863 57.855-18.49 89.733-18.49 1.989 0 3.911 0 5.832.065.729 0 1.458 0 2.12.068 51.825 3.181 93.444 23.791 108.024 31.942a172 172 0 0 1 4.97 2.916l.597.398h.066c63.024 40.228 104.841 110.741 104.841 191.063" style="fill:url(#d)"/><path d="M1019.428 582.656c-98.216 7.886-147.324 86.883-147.324 86.883s-2.319 6.362-6.825 11.598c-.066 0-.066.066-.133.066-2.187 2.584-5.037 4.838-8.35 5.897 0 .066-.066.066-.066.066-2.85.929-6.031.993-9.675-.398-10.405-6.495-18.158-19.086-23.991-33.665-14.712-36.649-17.032-86.353-17.032-86.353.729-.332 1.392-.663 2.12-.993 33.003-15.707 65.941-20.014 95.565-18.426.729 0 1.458 0 2.12.068 51.825 3.181 93.444 23.791 108.024 31.942a172 172 0 0 1 4.97 2.916zM815.044 677.625v36.45l-.994.199c-67.333 12.856-82.244 188.61-83.967 211.474-36.383-40.161-58.65-93.444-58.65-152.028 0-10.14.662-20.147 1.921-29.889 18.358-72.302 99.408-71.043 129.959-67.796 7.291.729 11.731 1.59 11.731 1.59" style="fill:#91b3fa"/><path d="M1118.901 823.026c.066.066 0 .066 0 .066-4.573 20.545-11.928 40.029-21.604 58.055-.066 0-.066.066-.066.066-22.997 31.148-57.459 69.851-91.389 91.588-.266.133-.531.33-.796.463-11.995 7.622-23.923 13.057-35.256 15.243-.065 0-.132.066-.198.066-.133 0-.332.066-.464.066-46.656-7.621-104.379-197.556-123.531-265.221-4.242-14.779-6.561-23.724-6.561-23.724l17.695-12.526c2.451-1.723 5.236-3.711 8.417-5.964.066 0 .066-.066.133-.066 3.644.529 7.289 1.06 10.868 1.59 172.106 26.509 226.648 110.276 242.752 140.298" style="fill:#91b3fa"/><linearGradient id="e" x1="801.789" x2="876.346" y1="686.737" y2="686.737" gradientUnits="userSpaceOnUse"><stop offset="0" style="stop-color:#4042e2"/><stop offset="1" style="stop-color:#4f52ff"/></linearGradient><circle cx="839.068" cy="686.737" r="37.278" style="fill:url(#e)"/><path d="M1319.777 608.659c-71.702 55.593-171.25 58.01-245.566 5.963l-8.515-5.963c-4.224 5.068-85.665 89.819-131.687 194.339-2.544 5.778-2.014 12.437 1.311 17.803 8.034 12.963 24.83 36.57 45.614 46.151 7.636 3.52 16.681 1.548 22.271-4.733 15.37-17.273 49.258-56.072 65.097-79.83 0 0-27.643 152.561-35.1 214.998-2.234 18.707 10.778 35.807 29.385 38.759 90.792 14.403 178.374 16.484 261.384 1.014 18.157-3.384 30.575-20.248 28.439-38.593-7.245-62.22-35.239-216.178-35.239-216.178 15.839 23.758 49.727 62.557 65.097 79.83 5.589 6.281 14.635 8.252 22.271 4.733 20.784-9.581 37.581-33.188 45.615-46.151 3.326-5.366 3.856-12.026 1.311-17.803-46.023-104.52-127.464-189.271-131.688-194.339" style="fill:#7d97f4"/><linearGradient id="f" x1="1031.162" x2="1360.179" y1="652.878" y2="652.878" gradientUnits="userSpaceOnUse"><stop offset="0" style="stop-color:#dae3fe"/><stop offset="1" style="stop-color:#e9effd"/></linearGradient><path d="M1360.179 655.987c-21.951-27.668-38.556-45.113-40.402-47.329-71.702 55.593-171.25 58.01-245.566 5.963l-8.515-5.963c-1.678 2.013-15.547 16.611-34.535 40.018 38.975 28.615 151.213 88.952 329.018 7.311" style="fill:url(#f)"/><path d="M1349.277 974.65c-3.552-25.104-8.625-56.596-13.694-86.787-117.912 18.656-213.275 15.202-286.275 3.701-5.053 30.225-10.053 61.412-13.486 85.878 77.042 13.975 181.45 19.386 313.455-2.792" style="fill:#7d97f4"/><linearGradient id="g" x1="938.03" x2="1441.795" y1="773.793" y2="773.793" gradientUnits="userSpaceOnUse"><stop offset="0" style="stop-color:#dae3fe"/><stop offset="1" style="stop-color:#e9effd"/></linearGradient><path d="M1323.15 815.834c-3.577-20.237-5.979-33.445-5.979-33.445 5.689 8.534 13.71 19.009 22.362 29.729 32.318-7.623 66.412-17.422 102.262-29.783-12.379-25.031-26.447-48.622-40.528-69.872-223.107 87.967-365.868 36.863-421.717 7.119-14.695 22.74-29.174 47.924-41.521 74.535 21.261 9.605 53.958 21.672 97.877 30.224 12.264-14.711 24.547-30.178 32.396-41.952 0 0-3.423 18.892-8.185 46.101 66.38 9.891 154.256 10.992 263.033-12.656" style="fill:url(#g)"/><linearGradient id="h" x1="1203.576" x2="1199.576" y1="-101.407" y2="198.593" gradientUnits="userSpaceOnUse"><stop offset="0" style="stop-color:#09005d"/><stop offset="1" style="stop-color:#1a0f91"/></linearGradient><path d="M1063.598 626.448c-4.796 0-9.203-3.164-10.569-8.007-1.648-5.841 1.752-11.91 7.591-13.557 4.465-1.259 111.131-30.59 265.479-8.543 6.006.858 10.181 6.424 9.323 12.431-.86 6.006-6.418 10.176-12.432 9.323-149.78-21.401-255.354 7.642-256.404 7.937-.998.282-2.001.416-2.988.416" style="fill:url(#h)"/><linearGradient id="i" x1="1191.086" x2="1187.086" y1="-101.572" y2="198.428" gradientUnits="userSpaceOnUse"><stop offset="0" style="stop-color:#09005d"/><stop offset="1" style="stop-color:#1a0f91"/></linearGradient><path d="M1178.386 610.197c-5.873 0-10.743-4.645-10.971-10.565-.008-.21-.809-21.266-.809-40.482 0-10.779 8.77-20.453 19.872-32.701 22.697-25.039 30.022-37.501 16.624-49.868-7.735-7.141-15.139-10.213-22.614-9.383-14.647 1.615-25.762 17.441-25.873 17.601-3.445 4.974-10.278 6.246-15.264 2.822-4.988-3.425-6.282-10.22-2.877-15.221.671-.987 16.73-24.198 41.428-27.024 14.054-1.599 27.539 3.46 40.103 15.059 31.564 29.133 2.26 61.458-15.246 80.773-5.343 5.894-13.391 14.772-14.179 18.158.005 18.74.785 39.216.793 39.422.233 6.064-4.493 11.168-10.557 11.401q-.215.008-.43.008" style="fill:url(#i)"/><linearGradient id="j" x1="1459.725" x2="1684.749" y1="1712.815" y2="802.493" gradientUnits="userSpaceOnUse"><stop offset="0" style="stop-color:#e1473d"/><stop offset="1" style="stop-color:#e9605a"/></linearGradient><path d="m1503.265 828.625-35.723 614.568 225.651-24.799c10.401-1.132 18.397-9.358 18.779-19.814l20.815-569.955z" style="fill:url(#j)"/><linearGradient id="k" x1="1075.986" x2="1095.986" y1="855.468" y2="1463.468" gradientUnits="userSpaceOnUse"><stop offset="0" style="stop-color:#fe7062"/><stop offset="1" style="stop-color:#ff928e"/></linearGradient><path d="m648.693 868.448 25.734 530.593c.898 18.605 16.175 33.301 34.801 33.55l758.284 10.114c9.43.126 18.296-3.532 25.009-10.156s10.27-15.662 10.27-25.094V827.648z" style="fill:url(#k)"/><linearGradient id="l" x1="1565.871" x2="1665.87" y1="681.217" y2="925.216" gradientUnits="userSpaceOnUse"><stop offset="0" style="stop-color:#fe7062"/><stop offset="1" style="stop-color:#ff928e"/></linearGradient><path d="m1790.914 928.101-44.627-99.476h-243.875l90.449 139.212c4.382 6.768 12.242 10.198 20.245 9.22l161.123-19.815c6.637-.811 12.495-4.541 15.786-10.361s3.624-12.674.899-18.78" style="fill:url(#l)"/><linearGradient id="m" x1="1302.248" x2="1070.248" y1="589.824" y2="853.824" gradientUnits="userSpaceOnUse"><stop offset="0" style="stop-color:#fe7062"/><stop offset="1" style="stop-color:#ff928e"/></linearGradient><path d="M631.522 828.625 565.521 947.56c-3.575 6.469-3.5 14.094.198 20.493s10.478 10.271 17.868 10.403l814.991 14.496c7.815.14 15.065-3.6 18.835-10.446l84.999-153.881z" style="fill:url(#m)"/><path d="M1147.108 1233.79c-3.579-16.137-17.889-27.131-34.417-27.131H1002.97c-19.47 0-35.727 14.806-35.727 34.276v195.985l225.257 2.363z" style="opacity:.37;fill:#fff"/><path d="M1065.869 1279.137c-.362-5.602-5.012-9.473-10.626-9.473h-5.837c-2.915 0-5.702.706-7.711 2.817s-3.067 4.709-2.924 7.62l7.698 156.733 29.628.391z" style="fill:#fff"/><linearGradient id="n" x1="828.488" x2="828.488" y1="391.049" y2="918.944" gradientUnits="userSpaceOnUse"><stop offset="0" style="stop-color:#09005d"/><stop offset="1" style="stop-color:#1a0f91"/></linearGradient><path d="M784.971 1079.143c8.178-1.314 18.838-2.044 30.081-2.044 18.692 0 30.813 3.358 40.305 10.514 10.221 7.594 16.647 19.714 16.647 37.091 0 18.838-6.864 31.835-16.356 39.865-10.367 8.616-26.139 12.705-45.414 12.705-11.537 0-19.715-.73-25.263-1.46zm22.342 80.316c1.899.438 4.965.438 7.74.438 20.153.145 33.295-10.952 33.295-34.463.146-20.444-11.828-31.25-30.958-31.25-4.965 0-8.178.437-10.077.876z" style="fill:url(#n)"/><linearGradient id="o" x1="929.386" x2="929.386" y1="391.048" y2="918.943" gradientUnits="userSpaceOnUse"><stop offset="0" style="stop-color:#09005d"/><stop offset="1" style="stop-color:#1a0f91"/></linearGradient><path d="M976.699 1126.018c0 32.273-19.567 51.84-48.335 51.84-29.205 0-46.291-22.05-46.291-50.088 0-29.498 18.838-51.548 47.897-51.548 30.228.001 46.729 22.636 46.729 49.796m-71.116 1.314c0 19.276 9.053 32.857 23.948 32.857 15.041 0 23.657-14.311 23.657-33.44 0-17.67-8.47-32.856-23.803-32.856-15.04-.001-23.802 14.31-23.802 33.439" style="fill:url(#o)"/><linearGradient id="p" x1="1032.036" x2="1032.036" y1="391.048" y2="918.943" gradientUnits="userSpaceOnUse"><stop offset="0" style="stop-color:#09005d"/><stop offset="1" style="stop-color:#1a0f91"/></linearGradient><path d="M991.294 1176.252v-98.423h25.993l20.444 36.069c5.841 10.368 11.683 22.634 16.063 33.732h.438c-1.46-12.996-1.898-26.285-1.898-41.033v-28.768h20.443v98.423h-23.364l-21.029-37.968c-5.841-10.514-12.266-23.219-17.085-34.754l-.439.146c.585 12.996.877 26.869.877 42.932v29.644z" style="fill:url(#p)"/><linearGradient id="q" x1="1129.793" x2="1129.793" y1="391.048" y2="918.943" gradientUnits="userSpaceOnUse"><stop offset="0" style="stop-color:#09005d"/><stop offset="1" style="stop-color:#1a0f91"/></linearGradient><path d="m1114.971 1150.989-7.009 25.263h-23.073l30.082-98.423h29.205l30.521 98.423h-23.949l-7.593-25.263zm24.971-16.647-6.133-20.883c-1.752-5.841-3.505-13.142-4.965-18.983h-.292c-1.46 5.841-2.92 13.288-4.527 18.983l-5.841 20.883z" style="fill:url(#q)"/><linearGradient id="r" x1="1206.087" x2="1206.087" y1="391.048" y2="918.943" gradientUnits="userSpaceOnUse"><stop offset="0" style="stop-color:#09005d"/><stop offset="1" style="stop-color:#1a0f91"/></linearGradient><path d="M1194.697 1096.52h-26.431v-18.692h75.642v18.692h-26.869v79.732h-22.342z" style="fill:url(#r)"/><linearGradient id="s" x1="1287.126" x2="1287.126" y1="391.048" y2="918.943" gradientUnits="userSpaceOnUse"><stop offset="0" style="stop-color:#09005d"/><stop offset="1" style="stop-color:#1a0f91"/></linearGradient><path d="M1314.286 1134.634h-36.215v23.365h40.451v18.253h-62.793v-98.423h60.748v18.253h-38.406v20.444h36.215z" style="fill:url(#s)"/><linearGradient id="t" x1="96.842" x2="157.642" y1="1124.556" y2="1124.556" gradientTransform="translate(395.783)" gradientUnits="userSpaceOnUse"><stop offset="0" style="stop-color:#ff928e"/><stop offset="1" style="stop-color:#feb3b1"/></linearGradient><path d="M514.508 1093.22c-6.237 6.658-15.421 12.411-21.884 15.998 9.651 11.93 22.711 23.877 39.999 35.57l4.948 11.103 15.853-19c.001 0-28.446-14.156-38.916-43.671" style="fill:url(#t)"/><linearGradient id="u" x1="194.494" x2="186.995" y1="1133.867" y2="1306.358" gradientTransform="translate(395.783)" gradientUnits="userSpaceOnUse"><stop offset="0" style="stop-color:#09005d"/><stop offset="1" style="stop-color:#1a0f91"/></linearGradient><path d="M599.349 1453.595a4 4 0 0 0-.104-1.03c-5.135-20.357-30.621-33.037-30.621-33.037l-10.099.792c-5.807 17.943-5.06 28.948-4.128 33.849.026.137.068.268.104.401 8.33.743 25.477 1.23 44.848-.975" style="fill:url(#u)"/><linearGradient id="v" x1="181.142" x2="181.142" y1="1162.722" y2="1420.711" gradientTransform="translate(395.783)" gradientUnits="userSpaceOnUse"><stop offset="0" style="stop-color:#4042e2"/><stop offset="1" style="stop-color:#4f52ff"/></linearGradient><path d="M554.5 1454.569c.45 1.636 1.658 2.911 3.205 3.236 11.851 2.492 30.686.487 38.594-.547 1.745-.228 3.02-1.842 3.049-3.663-19.37 2.205-36.517 1.718-44.848.974" style="fill:url(#v)"/><linearGradient id="w" x1="170.654" x2="161.946" y1="1385.458" y2="1461.462" gradientTransform="translate(395.783)" gradientUnits="userSpaceOnUse"><stop offset="0" style="stop-color:#ff928e"/><stop offset="1" style="stop-color:#feb3b1"/></linearGradient><path d="m554.463 1405.277 4.277 20.591c.314 1.508 1.473 2.638 2.877 2.77 1.719.162 4.166.256 6.627-.105 2.206-.324 3.743-2.567 3.352-4.973l-2.973-18.283z" style="fill:url(#w)"/><linearGradient id="x" x1="260.353" x2="260.353" y1="1162.726" y2="1420.711" gradientTransform="translate(395.783)" gradientUnits="userSpaceOnUse"><stop offset="0" style="stop-color:#4042e2"/><stop offset="1" style="stop-color:#4f52ff"/></linearGradient><path d="M643.086 1454.362c-11.154-.313-16.923-1.626-19.905-2.845a91 91 0 0 0 .035 3.407c.038 1.249.963 2.246 2.101 2.239l61.241-.395c1.954-.013 3.096-2.279 2.25-4.071-8.029.664-28.48 2.148-45.722 1.665" style="fill:url(#x)"/><linearGradient id="y" x1="273.868" x2="266.368" y1="1137.318" y2="1309.809" gradientTransform="translate(395.783)" gradientUnits="userSpaceOnUse"><stop offset="0" style="stop-color:#09005d"/><stop offset="1" style="stop-color:#1a0f91"/></linearGradient><path d="M688.809 1452.698c-.074-.156-.138-.315-.243-.462-5.408-7.557-19.183-22.605-46.403-29.132l-13.058-.413s-5.814 10.106-5.924 28.826c2.982 1.219 8.751 2.532 19.905 2.845 17.242.483 37.693-1.001 45.723-1.664" style="fill:url(#y)"/><linearGradient id="z" x1="241.593" x2="232.884" y1="1393.587" y2="1469.589" gradientTransform="translate(395.783)" gradientUnits="userSpaceOnUse"><stop offset="0" style="stop-color:#ff928e"/><stop offset="1" style="stop-color:#feb3b1"/></linearGradient><path d="M626.684 1402.902c.145.973 1.935 15.767 2.628 21.502.164 1.363 1.152 2.418 2.396 2.566 2.224.266 5.822.508 8.969-.138 1.698-.348 2.927-1.979 2.927-3.876v-23.221z" style="fill:url(#z)"/><linearGradient id="A" x1="118.82" x2="-159.714" y1="1397.111" y2="1829.32" gradientTransform="translate(395.783)" gradientUnits="userSpaceOnUse"><stop offset="0" style="stop-color:#4042e2"/><stop offset="1" style="stop-color:#4f52ff"/></linearGradient><path d="M616.208 1132.932s31.495 119.692 30.925 270.312a5.83 5.83 0 0 1-4.626 5.682c-3.96.834-9.781 1.824-14.6 1.689-2.572-.072-4.723-1.98-5.156-4.517-4.416-25.898-29.759-171.79-44.198-195.476 0 0-9.5 129.939-6.463 197.352a3.196 3.196 0 0 1-2.819 3.323c-2.529.292-6.573.514-11.721-.033-1.954-.208-3.531-1.685-3.81-3.63-3.146-21.918-21.25-152.38-20.481-246.359.044-5.3 14.016-28.344 14.016-28.344z" style="fill:url(#A)"/><linearGradient id="B" x1="-593.599" x2="-638.327" y1="961.087" y2="1399.046" gradientTransform="translate(1163.551)" gradientUnits="userSpaceOnUse"><stop offset="0" style="stop-color:#4042e2"/><stop offset="1" style="stop-color:#4f52ff"/></linearGradient><path d="M660.01 988.076a131 131 0 0 1-13.335-20.352c-5.232-9.884-.421 6.398-1.85-4.763-39.176-28.271-98.168-13.961-120.987-11.087a30.48 30.48 0 0 0-19.255 10.337c-19.554 22.628-62.461 84.58-11.958 147.006 6.463-3.587 15.647-9.34 21.884-15.998-5.587-15.75-6.045-35.878 5.665-60.561.4 1.957.895 3.893 1.496 5.799 16.139 51.13 17 93.678 16.964 103.485a3.24 3.24 0 0 0 2.031 3.026c21.241 8.512 62.129 3.446 75.854 1.4 2.517-.375 4.21-2.718 3.862-5.238-6.736-48.803 27.835-129.086 36.966-149.194a13.3 13.3 0 0 1 2.663-3.86" style="fill:url(#B)"/><linearGradient id="C" x1="576.778" x2="576.778" y1="877.333" y2="991.333" gradientUnits="userSpaceOnUse"><stop offset="0" style="stop-color:#ff928e"/><stop offset="1" style="stop-color:#feb3b1"/></linearGradient><path d="m560.55 910.781-4.094 41.825s23.529 7.087 40.642-4.988l-12.03-38.013z" style="fill:url(#C)"/><linearGradient id="D" x1="627.928" x2="591.262" y1="821.911" y2="883.911" gradientUnits="userSpaceOnUse"><stop offset="0" style="stop-color:#ff928e"/><stop offset="1" style="stop-color:#feb3b1"/></linearGradient><path d="M587.852 863.11c.567.533 23.899 46.354 23.899 46.354l-26.446 12.767-28.567-40.143s21.634-27.902 31.114-18.978" style="fill:url(#D)"/><linearGradient id="E" x1="-1463.626" x2="-1393.159" y1="-1011.126" y2="-1011.126" gradientTransform="rotate(-46.73 1781.747 -2392.323)" gradientUnits="userSpaceOnUse"><stop offset="0" style="stop-color:#09005d"/><stop offset="1" style="stop-color:#1a0f91"/></linearGradient><path d="M568.439 883.199a4.22 4.22 0 0 0 .318 3.705l13.19 21.988c.201.333.438.635.723.9 1.57 1.461 6.942 5.712 11.095-.075 3.54-4.932 6.861-9.417 10.42-11.267 2.078-1.08 4.636-.218 5.691 1.873 2.173 4.307 6.382 13.087 9.027 21.413.663 2.087-.414 4.327-2.444 5.149-5.355 2.17-15.939 6.093-25.331 7.389a4.22 4.22 0 0 1-3.988-1.696c-4.04-5.535-15.429-21.005-19.316-24.876-3.611-3.598-10.276-2.241-13.279-1.378a4.24 4.24 0 0 1-3.37-.442c-3.047-1.835-8.365-6.405-3.5-14.143 1.209-1.924.593-4.486-1.306-5.735-3.402-2.238-7.093-6.438-3.576-13.24 3.56-6.886 9.918-7.504 14.248-6.975 1.916.234 3.861-.771 4.596-2.555.327-.794.973-1.471 2.177-1.715 2.269-.46 3.759-2.536 3.314-4.808-.764-3.897-.189-8.959 6.033-12.38 11.411-6.274 21.406 3.949 23.947 12.578 2.542 8.63-10.216 14.728-18.242 15.746-5.894.748-9.126 7.181-10.427 10.544" style="fill:url(#E)"/><linearGradient id="F" x1="-1504.973" x2="-1457.657" y1="-968.065" y2="-1016.61" gradientTransform="rotate(-46.73 1781.747 -2392.323)" gradientUnits="userSpaceOnUse"><stop offset="0" style="stop-color:#ff928e"/><stop offset="1" style="stop-color:#feb3b1"/></linearGradient><path d="M572.778 915.777s-5.074-14.846-11.569-14.301-11.607 7.015-3.558 14.289c10.013 9.046 15.127.012 15.127.012" style="fill:url(#F)"/><linearGradient id="G" x1="554.527" x2="531.194" y1="932.773" y2="975.439" gradientUnits="userSpaceOnUse"><stop offset="0" style="stop-color:#09005d"/><stop offset="1" style="stop-color:#1a0f91"/></linearGradient><path d="M518.031 1028.836c-8.561-23.429-5.455-51.72-5.423-52.003l2.359.269c-.031.278-3.071 28.027 5.295 50.919z" style="fill:url(#G)"/><linearGradient id="H" x1="622.902" x2="588.403" y1="977.412" y2="1109.406" gradientUnits="userSpaceOnUse"><stop offset="0" style="stop-color:#09005d"/><stop offset="1" style="stop-color:#1a0f91"/></linearGradient><path d="M577.397 1207.572c-.528 0-1.01-.354-1.148-.889-2.612-10.073-22.169-21.143-22.366-21.254a1.186 1.186 0 1 1 1.162-2.071c.841.471 20.638 11.678 23.503 22.729a1.187 1.187 0 0 1-1.151 1.485" style="fill:url(#H)"/><linearGradient id="I" x1="-491.688" x2="-539.566" y1="970.811" y2="1439.612" gradientTransform="translate(1163.551)" gradientUnits="userSpaceOnUse"><stop offset="0" style="stop-color:#4042e2"/><stop offset="1" style="stop-color:#4f52ff"/></linearGradient><path d="M739.532 1001.23c-44.309 6.648-73.188-21.309-94.708-38.268-28.412-22.391-50.522-11.497-50.522-11.497l30.3 57.827c45.249 42.663 91.642 33.189 120.89 19.363.451-11.17-2.534-20.517-5.96-27.425" style="fill:url(#I)"/><linearGradient id="J" x1="-307.778" x2="-343.778" y1="397.031" y2="649.031" gradientTransform="translate(1163.551)" gradientUnits="userSpaceOnUse"><stop offset="0" style="stop-color:#ff928e"/><stop offset="1" style="stop-color:#feb3b1"/></linearGradient><path d="m801.807 974.795-14.694 7.907c-17.622 10.729-33.391 16.399-47.582 18.528 3.426 6.908 6.411 16.255 5.96 27.425 18.619-8.8 30.291-19.363 30.291-19.363 33.288-19.849 26.025-34.497 26.025-34.497" style="fill:url(#J)"/><linearGradient id="K" x1="-264.158" x2="-300.158" y1="403.261" y2="655.261" gradientTransform="translate(1163.551)" gradientUnits="userSpaceOnUse"><stop offset="0" style="stop-color:#ff928e"/><stop offset="1" style="stop-color:#feb3b1"/></linearGradient><path d="M845.094 995.501a10.84 10.84 0 0 0-6.335-6.933l-29.821-11.992s-.45-3.824 6.301-6.423 5.173-10.16 5.173-10.16-9.223 4.207-22.726 10.88c-7.721 3.816-12.054 10.554-14.352 15.626l7.677 10.095c18.379 5.522 36.977 6.577 55.733 4.387z" style="fill:url(#K)"/><linearGradient id="L" x1="-94.552" x2="-166.537" y1="1062.881" y2="1062.881" gradientTransform="matrix(-1 0 0 1 311.3 0)" gradientUnits="userSpaceOnUse"><stop offset="0" style="stop-color:#ff928e"/><stop offset="1" style="stop-color:#feb3b1"/></linearGradient><path d="M477.837 1048.134s-26.738 61.702-43.191 53.475-28.794-76.099-28.794-76.099 51.418-12.34 71.985 22.624" style="fill:url(#L)"/><linearGradient id="M" x1="1249.172" x2="1250.711" y1="1320.975" y2="1490.271" gradientTransform="translate(-830.998)" gradientUnits="userSpaceOnUse"><stop offset="0" style="stop-color:#09005d"/><stop offset="1" style="stop-color:#1a0f91"/></linearGradient><path d="M384.744 1431.028s-2.235 12.654-3.331 25.18c-.428 4.895 3.346 9.146 8.256 9.351 16.681.695 52.362 2.046 65.166 1.474 1.924-.086 3.183-2.057 2.471-3.847a6.28 6.28 0 0 0-3.215-3.387l-58.939-27.088z" style="fill:url(#M)"/><linearGradient id="N" x1="1213.911" x2="1233.083" y1="1430.976" y2="1430.976" gradientTransform="translate(-830.998)" gradientUnits="userSpaceOnUse"><stop offset="0" style="stop-color:#ff928e"/><stop offset="1" style="stop-color:#feb3b1"/></linearGradient><path d="m382.913 1423.594 1.796 15.136s10.324 4.806 17.375-.606l-4.276-16.868z" style="fill:url(#N)"/><linearGradient id="O" x1="1192.25" x2="1205.334" y1="1503.923" y2="1152.825" gradientTransform="translate(-830.998)" gradientUnits="userSpaceOnUse"><stop offset="0" style="stop-color:#09005d"/><stop offset="1" style="stop-color:#1a0f91"/></linearGradient><path d="M384.263 1139.036c-.776 3.953-4.164 197.245 16.498 283.866.337 1.413-.379 2.87-1.725 3.42-3.169 1.295-9.381 3.17-16.827 3.42a5.06 5.06 0 0 1-5.023-3.635c-5.906-20.097-34.207-120.791-37.899-216.981-4.125-107.482 0-3.659 0-3.659l2.419-66.439z" style="fill:url(#O)"/><linearGradient id="P" x1="1154.93" x2="1156.47" y1="1321.834" y2="1491.128" gradientTransform="translate(-830.998)" gradientUnits="userSpaceOnUse"><stop offset="0" style="stop-color:#09005d"/><stop offset="1" style="stop-color:#1a0f91"/></linearGradient><path d="M316.945 1437.63s-3.558 6.389-7.003 23.363c-.622 3.066 1.52 6 4.633 6.306 5.508.542 13.988 1.238 20.78 1.191 3.131-.021 5.575-2.748 5.198-5.856-.752-6.196-3.096-16.361-10.337-24.285z" style="fill:url(#P)"/><linearGradient id="Q" x1="1144.818" x2="1161.371" y1="1429.993" y2="1429.993" gradientTransform="translate(-830.998)" gradientUnits="userSpaceOnUse"><stop offset="0" style="stop-color:#ff928e"/><stop offset="1" style="stop-color:#feb3b1"/></linearGradient><path d="m313.82 1418.162 4.196 22.889s4.149 3.086 12.357.849l-2.003-24.627z" style="fill:url(#Q)"/><linearGradient id="R" x1="1159.889" x2="1172.974" y1="1502.717" y2="1151.62" gradientTransform="translate(-830.998)" gradientUnits="userSpaceOnUse"><stop offset="0" style="stop-color:#09005d"/><stop offset="1" style="stop-color:#1a0f91"/></linearGradient><path d="M302.484 1144.967c-16.899 101.983 3.665 252.059 10.601 281.432a4.58 4.58 0 0 0 3.699 3.478c3.096.513 8.192.932 13.217-.527a4.2 4.2 0 0 0 3.018-3.866c.93-23.748-.745-169.535 15.001-227.151a13.1 13.1 0 0 1 5.048-7.22l30.561-21.726 2.343-35.118z" style="fill:url(#R)"/><linearGradient id="S" x1="-60.2" x2="39.397" y1="984.474" y2="1246.491" gradientTransform="matrix(-1 0 0 1 311.3 0)" gradientUnits="userSpaceOnUse"><stop offset="0" style="stop-color:#fe7062"/><stop offset="1" style="stop-color:#ff928e"/></linearGradient><path d="M412.022 955.581c-61.702-6.17-108.379 9.445-108.379 9.445-15.095 88.079-2.64 189.672-2.64 189.672 39.205 10.281 83.431-6.286 83.431-6.286 6.516-36.815 36.919-140.424 36.919-140.424 24.743-3.071 6.213-50.852-9.331-52.407" style="fill:url(#S)"/><linearGradient id="T" x1="1.363" x2="100.96" y1="961.072" y2="1223.089" gradientTransform="matrix(-1 0 0 1 311.3 0)" gradientUnits="userSpaceOnUse"><stop offset="0" style="stop-color:#fe7062"/><stop offset="1" style="stop-color:#ff928e"/></linearGradient><path d="m323.067 1014.062-19.424-49.036s-47.302 32.139-55.081 72.889c8.938.658 25.201 2.983 41.12 11.021 3.499-19.241 33.385-34.874 33.385-34.874" style="fill:url(#T)"/><linearGradient id="U" x1="334.2" x2="279.533" y1="1031.127" y2="1089.127" gradientUnits="userSpaceOnUse"><stop offset="0" style="stop-color:#ff928e"/><stop offset="1" style="stop-color:#feb3b1"/></linearGradient><path d="M368.516 1060.203s-53.108 30.014-71.027 4.386c-3.72-5.322-8.323-12.391-7.406-17.433-15.919-8.038-32.041-11.122-40.979-11.781-2.345 12.285 2.466 27.891 9.685 41.096 31.388 57.419 116.756-3.173 116.756-3.173z" style="fill:url(#U)"/><linearGradient id="V" x1="489.217" x2="465.217" y1="842.42" y2="921.42" gradientUnits="userSpaceOnUse"><stop offset="0" style="stop-color:#09005d"/><stop offset="1" style="stop-color:#1a0f91"/></linearGradient><path d="m362.135 1098.174 28.985-101.22a2.95 2.95 0 0 1 2.496-2.126c5.252-.612 20.468-2.333 38.037-3.819 21.163-1.79 45.739-3.241 60.425-2.007 2.088.175 3.349 2.384 2.421 4.262-8.351 16.896-42.704 85.624-59.906 108.138a2.97 2.97 0 0 1-2.389 1.173l-67.249-.626a2.96 2.96 0 0 1-2.82-3.775" style="fill:url(#V)"/><linearGradient id="W" x1="1286.712" x2="1272.197" y1="936.669" y2="1000.408" gradientTransform="translate(-830.998)" gradientUnits="userSpaceOnUse"><stop offset="0" style="stop-color:#4042e2"/><stop offset="1" style="stop-color:#4f52ff"/></linearGradient><path d="m434.66 982.234 21.014-3.501a1.508 1.508 0 0 1 1.68 1.96l-2.08 6.304c-.181.549-.66.946-1.233 1.022l-20.222 2.701a1.508 1.508 0 0 1-1.668-1.839l1.288-5.503a1.51 1.51 0 0 1 1.221-1.144" style="fill:url(#W)"/><linearGradient id="X" x1="459.318" x2="415.318" y1="962.648" y2="1047.315" gradientUnits="userSpaceOnUse"><stop offset="0" style="stop-color:#4042e2"/><stop offset="1" style="stop-color:#4f52ff"/></linearGradient><path d="m418.925 1000.025 1.731-9.017a2.08 2.08 0 0 1 1.837-1.681l42.443-4.307a2.085 2.085 0 0 1 2.238 2.56l-2.699 11.237a2.08 2.08 0 0 1-1.922 1.594l-41.476 2.088a2.084 2.084 0 0 1-2.152-2.474" style="fill:url(#X)"/><linearGradient id="Y" x1="454.249" x2="420.249" y1="941.898" y2="995.898" gradientUnits="userSpaceOnUse"><stop offset="0" style="stop-color:#ff928e"/><stop offset="1" style="stop-color:#feb3b1"/></linearGradient><path d="M369.138 1073.719s-4.037-16.602-2.409-22.492 4.784-13.463 15.302-11.781c10.518 1.683 22.926 6.114 22.926 6.114s-.627 7.672-8.621 5.197l4.957 3.836s-.709 6.143-7.461 2.861l4.611 5.087s-2.9 5.046-7.867 1.81-7.35 11.368-21.438 9.368" style="fill:url(#Y)"/><linearGradient id="Z" x1="-330.839" x2="-292.222" y1="587.562" y2="587.562" gradientTransform="scale(-1 1)rotate(-32.088 370.068 1085.746)" gradientUnits="userSpaceOnUse"><stop offset="0" style="stop-color:#ff928e"/><stop offset="1" style="stop-color:#feb3b1"/></linearGradient><path d="M476.905 1049.018s12.24-11.921 13.989-17.776 3.098-13.948-6.707-18.11-22.671-6.998-22.671-6.998-3.544 6.833 4.543 8.982l-6.237.617s-2.663 5.581 4.801 6.387l-6.608 1.861s-.224 5.815 5.704 5.712.188 13.535 13.186 19.325" style="fill:url(#Z)"/><linearGradient id="aa" x1="393.326" x2="358.828" y1="859.896" y2="1009.889" gradientUnits="userSpaceOnUse"><stop offset="0" style="stop-color:#ff928e"/><stop offset="1" style="stop-color:#feb3b1"/></linearGradient><path d="m365.035 914.447-16.113 46.599c-.267.771.05 1.627.765 2.022 4.393 2.428 20.217 9.448 39.287-2.643 1.987-1.259 3.339-3.314 3.641-5.646l5.218-40.331h-32.798z" style="fill:url(#aa)"/><linearGradient id="ab" x1="-2545.26" x2="-2588.594" y1="1811.805" y2="1756.472" gradientTransform="rotate(-41.753 476.704 -7062.883)" gradientUnits="userSpaceOnUse"><stop offset="0" style="stop-color:#ff928e"/><stop offset="1" style="stop-color:#feb3b1"/></linearGradient><path d="M400.096 871.295s17.694 33.307 15.426 46.761-24.198 12.489-43.346 1.561l-13.381-35.964z" style="fill:url(#ab)"/><linearGradient id="ac" x1="-4899.077" x2="-4883.758" y1="-1265.122" y2="-1177.751" gradientTransform="rotate(-41.753 476.704 -7062.883)" gradientUnits="userSpaceOnUse"><stop offset="0" style="stop-color:#09005d"/><stop offset="1" style="stop-color:#1a0f91"/></linearGradient><path d="M373.022 901.956a1.373 1.373 0 0 0 .599-2.009c-1.418-2.166-4.075-6.584-4.923-10.452 0 0-3.181-2.037 8.096-4.736s28.094-6.889 31.628-16.487c3.446-9.359-5.608-32.893-20.055-14.141-.549.714-1.626.729-2.175.015-2.368-3.082-8.595-9.48-17.238-5.602-8.09 3.63-9 9.557-8.889 12.545a1.364 1.364 0 0 1-1.617 1.397c-4.09-.78-13.904-1.45-18.485 8.618-3.773 8.293-1.321 12.987.913 15.283a1.37 1.37 0 0 1-.585 2.273c-2.688.823-6.159 3.102-5.811 9.399.48 8.706 10.214 7.939 12.985 7.542.454-.065.912.091 1.219.431 2.376 2.63 13.082 13.795 24.669 15.141 1.003.116 1.781-.875 1.452-1.829l-5.015-14.577a1.38 1.38 0 0 1 .746-1.71z" style="fill:url(#ac)"/><linearGradient id="ad" x1="-2553.975" x2="-2597.309" y1="1818.628" y2="1763.295" gradientTransform="rotate(-41.753 476.704 -7062.883)" gradientUnits="userSpaceOnUse"><stop offset="0" style="stop-color:#ff928e"/><stop offset="1" style="stop-color:#feb3b1"/></linearGradient><path d="M375.038 904.025s-12.598-8.644-13.519-1.365 11.345 10.544 17.42 7.83z" style="fill:url(#ad)"/><linearGradient id="ae" x1="1869.876" x2="1944.202" y1="856.07" y2="769.798" gradientUnits="userSpaceOnUse"><stop offset="0" style="stop-color:#fe7062"/><stop offset="1" style="stop-color:#ff928e"/></linearGradient><circle cx="1945.703" cy="768.056" r="55.413" style="fill:url(#ae)"/><linearGradient id="af" x1="1986.201" x2="1766.416" y1="706.875" y2="1038.908" gradientUnits="userSpaceOnUse"><stop offset="0" style="stop-color:#fe7062"/><stop offset="1" style="stop-color:#ff928e"/></linearGradient><circle cx="1945.703" cy="768.056" r="53.571" style="fill:url(#af)"/><path d="M1901.527 748.052a2.248 2.248 0 0 1-2.006-3.265c8.852-17.539 26.549-28.434 46.183-28.434 3.135 0 6.272.282 9.324.838a2.25 2.25 0 0 1-.806 4.428 47.5 47.5 0 0 0-8.517-.766c-17.926 0-34.083 9.948-42.166 25.962a2.25 2.25 0 0 1-2.012 1.237" style="opacity:.71;fill:#fff"/><circle cx="1946.87" cy="769.223" r="45.341" style="opacity:.71;fill:#fff" transform="rotate(-80.944 1946.983 769.234)"/><linearGradient id="ag" x1="1979.645" x2="1862.614" y1="716.389" y2="912.864" gradientUnits="userSpaceOnUse"><stop offset="0" style="stop-color:#fe7062"/><stop offset="1" style="stop-color:#ff928e"/></linearGradient><path d="M1942.421 802.93v-4.933c-5.142-.206-10.229-1.42-13.841-3.001-1.29-.565-1.948-2.012-1.577-3.371l1.253-4.595c.46-1.686 2.293-2.557 3.904-1.882 3.584 1.503 8.008 2.691 12.78 2.691 4.953 0 8.647-1.679 8.647-5.121 0-3.106-2.854-4.953-9.738-6.799-9.822-2.687-16.874-6.968-16.874-15.615 0-7.807 5.709-13.768 15.615-15.362v-4.933a2.874 2.874 0 0 1 2.874-2.874h2.898a2.874 2.874 0 0 1 2.874 2.874v4.429c4.758.191 8.222 1.004 10.971 1.97 1.408.495 2.178 2.012 1.787 3.453l-1.152 4.25a2.867 2.867 0 0 1-3.784 1.936c-2.531-.957-6.109-1.954-10.76-1.954-5.877 0-7.555 2.435-7.555 4.617 0 2.686 3.526 4.533 11.165 6.884 10.914 3.274 15.447 7.807 15.447 15.95 0 7.472-5.541 14.188-16.286 15.867v5.521a2.874 2.874 0 0 1-2.874 2.874h-2.898a2.88 2.88 0 0 1-2.876-2.876" style="fill:url(#ag)"/><linearGradient id="ah" x1="1698.803" x2="1806.002" y1="979.341" y2="854.913" gradientUnits="userSpaceOnUse"><stop offset="0" style="stop-color:#e1473d"/><stop offset="1" style="stop-color:#e9605a"/></linearGradient><circle cx="1808.167" cy="852.4" r="79.921" style="fill:url(#ah)"/><linearGradient id="ai" x1="1866.576" x2="1549.586" y1="764.16" y2="1243.042" gradientUnits="userSpaceOnUse"><stop offset="0" style="stop-color:#fe7062"/><stop offset="1" style="stop-color:#ff928e"/></linearGradient><circle cx="1808.167" cy="852.4" r="77.263" style="fill:url(#ai)"/><path d="M1744.455 822.555a2.25 2.25 0 0 1-2.007-3.265c12.598-24.959 37.78-40.464 65.719-40.464 4.455 0 8.921.402 13.271 1.194a2.25 2.25 0 1 1-.806 4.428 69.7 69.7 0 0 0-12.464-1.122c-26.23 0-49.873 14.557-61.701 37.992a2.25 2.25 0 0 1-2.012 1.237" style="opacity:.71;fill:#fff"/><circle cx="1809.851" cy="854.083" r="65.394" style="opacity:.71;fill:#fff" transform="rotate(-76.426 1809.776 854.061)"/><linearGradient id="aj" x1="1857.12" x2="1688.329" y1="777.882" y2="1061.254" gradientUnits="userSpaceOnUse"><stop offset="0" style="stop-color:#fe7062"/><stop offset="1" style="stop-color:#ff928e"/></linearGradient><path d="M1803.433 902.698v-7.115c-7.417-.297-14.753-2.047-19.963-4.328-1.861-.814-2.809-2.903-2.275-4.862l1.808-6.627c.663-2.431 3.307-3.688 5.631-2.714 5.169 2.167 11.55 3.881 18.432 3.881 7.144 0 12.471-2.422 12.471-7.386 0-4.479-4.116-7.143-14.045-9.806-14.166-3.874-24.337-10.05-24.337-22.521 0-11.261 8.234-19.857 22.521-22.157v-7.115a4.145 4.145 0 0 1 4.146-4.145h4.18a4.145 4.145 0 0 1 4.145 4.145v6.388c6.863.275 11.859 1.448 15.823 2.841 2.031.714 3.141 2.902 2.578 4.98l-1.662 6.129a4.134 4.134 0 0 1-5.457 2.792c-3.65-1.38-8.811-2.818-15.519-2.818-8.476 0-10.897 3.511-10.897 6.659 0 3.875 5.085 6.538 16.103 9.929 15.74 4.722 22.278 11.26 22.278 23.005 0 10.776-7.991 20.462-23.489 22.884v7.962a4.145 4.145 0 0 1-4.145 4.145h-4.181a4.146 4.146 0 0 1-4.146-4.146" style="fill:url(#aj)"/><linearGradient id="ak" x1="1857.044" x2="1954.595" y1="1076.995" y2="963.766" gradientUnits="userSpaceOnUse"><stop offset="0" style="stop-color:#e1473d"/><stop offset="1" style="stop-color:#e9605a"/></linearGradient><circle cx="1956.565" cy="961.479" r="72.728" style="fill:url(#ak)"/><linearGradient id="al" x1="2009.717" x2="1721.257" y1="881.182" y2="1316.963" gradientUnits="userSpaceOnUse"><stop offset="0" style="stop-color:#fe7062"/><stop offset="1" style="stop-color:#ff928e"/></linearGradient><circle cx="1956.565" cy="961.479" r="70.309" style="fill:url(#al)"/><path d="M1898.587 934.523a2.248 2.248 0 0 1-2.006-3.265c11.499-22.781 34.484-36.933 59.984-36.933 4.07 0 8.145.367 12.112 1.09a2.25 2.25 0 0 1-.806 4.428 63 63 0 0 0-11.306-1.017c-23.792 0-45.237 13.205-55.967 34.461a2.25 2.25 0 0 1-2.011 1.236" style="opacity:.71;fill:#fff"/><circle cx="1958.097" cy="963.011" r="59.508" style="opacity:.71;fill:#fff" transform="rotate(-45.001 1958.095 963.039)"/><linearGradient id="am" x1="2001.112" x2="1847.513" y1="893.668" y2="1151.536" gradientUnits="userSpaceOnUse"><stop offset="0" style="stop-color:#fe7062"/><stop offset="1" style="stop-color:#ff928e"/></linearGradient><path d="M1952.257 1007.251v-6.474c-6.749-.27-13.425-1.863-18.166-3.939-1.693-.741-2.556-2.641-2.07-4.424l1.645-6.031c.604-2.212 3.009-3.356 5.124-2.47 4.703 1.972 10.511 3.532 16.773 3.532 6.5 0 11.349-2.204 11.349-6.722 0-4.076-3.746-6.5-12.781-8.924-12.891-3.526-22.146-9.145-22.146-20.494 0-10.247 7.493-18.07 20.494-20.163v-6.475a3.77 3.77 0 0 1 3.772-3.772h3.804a3.77 3.77 0 0 1 3.772 3.772v5.813c6.245.25 10.791 1.318 14.399 2.586 1.848.649 2.858 2.641 2.346 4.531l-1.512 5.577a3.76 3.76 0 0 1-4.966 2.541c-3.322-1.256-8.018-2.564-14.122-2.564-7.713 0-9.916 3.195-9.916 6.06 0 3.526 4.627 5.949 14.654 9.035 14.323 4.297 20.273 10.247 20.273 20.934 0 9.806-7.271 18.621-21.375 20.824v7.245a3.77 3.77 0 0 1-3.772 3.772h-3.804a3.77 3.77 0 0 1-3.775-3.77" style="fill:url(#am)"/><linearGradient id="an" x1="1748.537" x2="2099.568" y1="1276.563" y2="1276.563" gradientUnits="userSpaceOnUse"><stop offset="0" style="stop-color:#4042e2"/><stop offset="1" style="stop-color:#4f52ff"/></linearGradient><path d="M2061.315 1117.924H1786.79c-21.127 0-38.253 17.126-38.253 38.253v240.772c0 21.127 17.126 38.254 38.253 38.254h274.525c21.127 0 38.253-17.126 38.253-38.254v-240.772c0-21.127-17.126-38.253-38.253-38.253" style="fill:url(#an)"/><linearGradient id="ao" x1="1905.969" x2="1938.082" y1="1190.056" y2="1060.144" gradientUnits="userSpaceOnUse"><stop offset="0" style="stop-color:#4042e2"/><stop offset="1" style="stop-color:#4f52ff"/></linearGradient><path d="M1780.04 1095.422h292.526v24.752H1780.04z" style="fill:url(#ao)"/><linearGradient id="ap" x1="1918.437" x2="1924.437" y1="934.983" y2="1091.983" gradientUnits="userSpaceOnUse"><stop offset="0" style="stop-color:#09005d"/><stop offset="1" style="stop-color:#1a0f91"/></linearGradient><path d="M2068.77 1059.419h-289.435c-7.068 0-12.797 5.729-12.797 12.796v19.411c0 7.067 5.729 12.797 12.797 12.797h289.435c7.068 0 12.797-5.729 12.797-12.797v-19.411c-.001-7.067-5.73-12.796-12.797-12.796" style="fill:url(#ap)"/><path d="M1781.816 1099.774a1.125 1.125 0 0 1-2.25 0v-33.753a1.125 1.125 0 0 1 2.25 0zM1790.817 1099.774a1.125 1.125 0 0 1-2.25 0v-33.753a1.125 1.125 0 0 1 2.25 0zM1799.818 1099.774a1.125 1.125 0 0 1-2.25 0v-33.753a1.125 1.125 0 0 1 2.25 0zM1808.818 1099.774a1.125 1.125 0 0 1-2.25 0v-33.753a1.125 1.125 0 0 1 2.25 0z" style="fill:#bdd0fb"/><linearGradient id="aq" x1="1790.817" x2="2054.09" y1="1271.914" y2="1271.914" gradientUnits="userSpaceOnUse"><stop offset="0" style="stop-color:#dae3fe"/><stop offset="1" style="stop-color:#e9effd"/></linearGradient><path d="M2054.09 1219.455c0-7.067-5.729-12.796-12.797-12.796h-237.68c-7.067 0-12.797 5.729-12.797 12.796v104.919c0 7.067 5.729 12.796 12.797 12.796h237.68c7.068 0 12.797-5.729 12.797-12.796z" style="fill:url(#aq)"/><path d="M1809.292 1415.927h-22.877c-13.442 0-24.851-11.913-24.851-25.354v-74.631a1.124 1.124 0 1 1 2.25 0v74.631c0 12.201 10.4 23.104 22.601 23.104h22.877a1.124 1.124 0 1 1 0 2.25" style="fill:#bdd0fb"/><linearGradient id="ar" x1="1769.781" x2="1891.285" y1="1766.424" y2="1371.534" gradientUnits="userSpaceOnUse"><stop offset="0" style="stop-color:#e1473d"/><stop offset="1" style="stop-color:#e9605a"/></linearGradient><path d="M1924.413 1259.346s2.58-35.095 37.563-29.295c33.141 5.495 22.531 50.837-24.162 79.692a18.33 18.33 0 0 1-16.808 1.26c-20.501-8.717-68.251-33.682-41.915-68.353 17.009-22.389 45.322 16.696 45.322 16.696" style="fill:url(#ar)"/><linearGradient id="as" x1="1973.662" x2="2122.222" y1="898.036" y2="725.601" gradientUnits="userSpaceOnUse"><stop offset="0" style="stop-color:#e1473d"/><stop offset="1" style="stop-color:#e9605a"/></linearGradient><circle cx="2125.222" cy="722.118" r="110.757" style="fill:url(#as)"/><linearGradient id="at" x1="2206.167" x2="1766.873" y1="599.833" y2="1263.482" gradientUnits="userSpaceOnUse"><stop offset="0" style="stop-color:#fe7062"/><stop offset="1" style="stop-color:#ff928e"/></linearGradient><circle cx="2125.222" cy="722.118" r="107.074" style="fill:url(#at)"/><path d="M2036.928 679.89a2.248 2.248 0 0 1-2.006-3.265c17.31-34.294 51.912-55.598 90.3-55.598 6.124 0 12.26.552 18.235 1.64a2.25 2.25 0 1 1-.806 4.428 97.5 97.5 0 0 0-17.428-1.568c-36.68 0-69.742 20.356-86.283 53.126a2.25 2.25 0 0 1-2.012 1.237" style="opacity:.71;fill:#fff"/><circle cx="2127.555" cy="724.451" r="90.625" style="opacity:.71;fill:#fff" transform="rotate(-77.614 2127.602 724.48)"/><linearGradient id="au" x1="2193.063" x2="1959.148" y1="618.849" y2="1011.554" gradientUnits="userSpaceOnUse"><stop offset="0" style="stop-color:#fe7062"/><stop offset="1" style="stop-color:#ff928e"/></linearGradient><path d="M2118.662 791.823v-9.86c-10.278-.411-20.445-2.837-27.665-5.998-2.578-1.129-3.893-4.022-3.152-6.738l2.505-9.184c.919-3.369 4.583-5.112 7.803-3.762 7.163 3.003 16.007 5.378 25.543 5.378 9.9 0 17.282-3.357 17.282-10.236 0-6.208-5.704-9.899-19.464-13.59-19.632-5.369-33.727-13.927-33.727-31.21 0-15.605 11.411-27.518 31.21-30.706v-9.861a5.745 5.745 0 0 1 5.745-5.745h5.793a5.744 5.744 0 0 1 5.744 5.745v8.853c9.511.38 16.434 2.007 21.928 3.938 2.815.989 4.353 4.021 3.572 6.901l-2.303 8.494a5.73 5.73 0 0 1-7.563 3.869c-5.058-1.913-12.21-3.905-21.507-3.905-11.746 0-15.101 4.866-15.101 9.229 0 5.369 7.047 9.06 22.316 13.759 21.813 6.544 30.874 15.604 30.874 31.88 0 14.933-11.074 28.357-32.551 31.713v11.034a5.745 5.745 0 0 1-5.745 5.745h-5.794a5.74 5.74 0 0 1-5.743-5.743" style="fill:url(#au)"/><linearGradient id="av" x1="2233.959" x2="2181.483" y1="781.865" y2="942.714" gradientUnits="userSpaceOnUse"><stop offset="0" style="stop-color:#ff928e"/><stop offset="1" style="stop-color:#feb3b1"/></linearGradient><path d="m2188.716 825.032 15.977-8.781a27.2 27.2 0 0 0 13.375-17.607l4.032-17.135a1.212 1.212 0 0 0-1.984-1.182l-38.628 34.38s-64.567 82.668 9.099 166.747l27.695-2.58c0 .001-53.313-85.603-29.566-153.842" style="fill:url(#av)"/><linearGradient id="aw" x1="2216.851" x2="2314.643" y1="1309.722" y2="1309.722" gradientUnits="userSpaceOnUse"><stop offset="0" style="stop-color:#ff928e"/><stop offset="1" style="stop-color:#feb3b1"/></linearGradient><path d="M2216.851 1219.445s52.313 114.018 79.76 161.244c0 0 5.451 29.716 0 39.06l-4.646 2.065 21.682-.645s1.926-39.971.422-42.203-4.512-2.086-4.512-2.086-9.297-73.656-36.222-89.376l-26.093-89.873z" style="fill:url(#aw)"/><linearGradient id="ax" x1="2351.269" x2="2302.839" y1="1091.029" y2="1405.821" gradientUnits="userSpaceOnUse"><stop offset="0" style="stop-color:#4042e2"/><stop offset="1" style="stop-color:#4f52ff"/></linearGradient><path d="M2282.705 1427.412c-.032.523 16.931.284 26.145.116a7.33 7.33 0 0 0 7.028-5.778l6.959-36.558a6.574 6.574 0 0 0-4.993-7.637l-3.884-.888s-5.541 7.601-3.797 14.757 3.297 25.694-1.112 27.854c-4.408 2.16-17.087 2.537-17.087 2.537s-8.969.889-9.259 5.597" style="fill:url(#ax)"/><linearGradient id="ay" x1="2248.797" x2="2200.367" y1="1075.263" y2="1390.057" gradientUnits="userSpaceOnUse"><stop offset="0" style="stop-color:#4042e2"/><stop offset="1" style="stop-color:#4f52ff"/></linearGradient><path d="M2167.267 1428.075c-1.716.977-1.008 3.597.966 3.577 15.42-.155 49.973-.643 53.044-1.92 3.964-1.648-1.444-15.893-7.137-20.714l-31.43 10.258z" style="fill:url(#ay)"/><linearGradient id="az" x1="2157.51" x2="2214.14" y1="1316.994" y2="1316.994" gradientUnits="userSpaceOnUse"><stop offset="0" style="stop-color:#ff928e"/><stop offset="1" style="stop-color:#feb3b1"/></linearGradient><path d="M2157.51 1212.174s33.806 163.542 43.37 195.443l-22.623 14.197s11.337-1.928 19.744-2.537 16.14-10.258 16.14-10.258l-2.71-4.323s-8.478-162.651-6.414-181.121z" style="fill:url(#az)"/><linearGradient id="aA" x1="2086.965" x2="2088.965" y1="704.319" y2="792.319" gradientUnits="userSpaceOnUse"><stop offset="0" style="stop-color:#ff928e"/><stop offset="1" style="stop-color:#feb3b1"/></linearGradient><path d="M2073.593 830.712s-4.663 85.073 72.791 128.545l-18.647 42.529s-70.124-42.415-67.531-158.096c.074-3.32-1.123-6.544-3.291-9.059l-14.904-17.29a26.76 26.76 0 0 1-5.69-23.961l1.962-7.842c.657-2.625 3.647-3.888 5.987-2.529l1.559.905a27.36 27.36 0 0 1 11.235 12.488l7.318 16.359a15.72 15.72 0 0 0 15.706 9.245l4.525-.391z" style="fill:url(#aA)"/><linearGradient id="aB" x1="2153.534" x2="2361.378" y1="954.255" y2="1365.907" gradientUnits="userSpaceOnUse"><stop offset="0" style="stop-color:#fe7062"/><stop offset="1" style="stop-color:#ff928e"/></linearGradient><path d="M2221.552 973.391a17.46 17.46 0 0 0-12.03-6.907c-25.551-2.887-55.328-10.75-65.613-13.602a4.08 4.08 0 0 0-4.958 2.641l-13.36 40.875a7.46 7.46 0 0 0 2.957 8.529l2.74 1.824c-1.994 5.923-4.614 12.083-1.094 17.247 12.185 17.882 27.628 53.749 27.628 53.749l54.862.246-1.339-15.487 13.4-75.617a17.46 17.46 0 0 0-3.193-13.498" style="fill:url(#aB)"/><linearGradient id="aC" x1="2107.512" x2="2289.124" y1="1061.165" y2="1265.982" gradientUnits="userSpaceOnUse"><stop offset="0" style="stop-color:#4042e2"/><stop offset="1" style="stop-color:#4f52ff"/></linearGradient><path d="m2153.205 1069.644 1.079 9.383s-15.504 46.43 7.752 154.874c0 0 50.366 14.269 91.763-19.875 0 0-11.677-102.354-14.867-107.122-15.887-23.747-26.47-28.909-26.47-28.909l-.477-10.251c.001-.001-44.275 8.004-58.78 1.9" style="fill:url(#aC)"/><linearGradient id="aD" x1="2174.678" x2="2209.332" y1="946.55" y2="946.55" gradientUnits="userSpaceOnUse"><stop offset="0" style="stop-color:#ff928e"/><stop offset="1" style="stop-color:#feb3b1"/></linearGradient><path d="M2174.681 960.535c-.193-.254 11.453-35.161 11.453-35.161l16.682 1.514 6.517 39.6c0-.001-26.144 5.276-34.652-5.953" style="fill:url(#aD)"/><linearGradient id="aE" x1="5998.69" x2="6074.992" y1="-2521.686" y2="-2469.858" gradientTransform="rotate(23.074 -4266.088 -10179.203)" gradientUnits="userSpaceOnUse"><stop offset="0" style="stop-color:#ff928e"/><stop offset="1" style="stop-color:#feb3b1"/></linearGradient><path d="M2207.026 881.157s-17.056-.053-35.782 16.649c-18.727 16.703-15.494 29.474-6.838 34.725s22.53 10.922 42.862 3.64c20.331-7.282 21.631-54.246-.242-55.014" style="fill:url(#aE)"/><linearGradient id="aF" x1="2326.776" x2="2168.95" y1="790.381" y2="954.584" gradientUnits="userSpaceOnUse"><stop offset="0" style="stop-color:#09005d"/><stop offset="1" style="stop-color:#1a0f91"/></linearGradient><path d="M2215.296 868.172c-19.762 1.138-24.375 16.594-24.375 16.594l8.274-1.741c23.042 10.18 8.878 30.61 4.295 36.311a2.426 2.426 0 0 0 .02 3.073l.025.031s8.613-3.836 8.932 2.518-10.162 13.512-10.162 13.512-.318 13.954 15.714 8.357c16.033-5.597 26.144-18.062 28.563-43.003s-11.523-36.791-31.286-35.652" style="fill:url(#aF)"/><linearGradient id="aG" x1="100.649" x2="331.106" y1="211.912" y2="211.912" gradientTransform="scale(-1 1)rotate(-28.777 531.847 5415.145)" gradientUnits="userSpaceOnUse"><stop offset="0" style="stop-color:#09005d"/><stop offset="1" style="stop-color:#1a0f91"/></linearGradient><path d="M2248.605 934.194c-8.71 28.07 12.153 30.536 18.076 48.405 9.599 28.961 47.933 25.593 65.712 57.806 12.834 23.255 4.819 60.315-18.746 80.849-32.638 28.44-85.368 18.549-102.566-5.017-16.437-22.523 3.77-51.848-19.417-80.203-9.844-12.038-17.903-12.154-21.326-23.864-5.993-20.498 13.779-53.06 20.584-62.187 14.767-19.803 16.672-11.494 18.411-22.806 3.384-22.002-24.558-34.713-20.05-49.082 4.107-13.084 38.971-23.013 58.303-7.814 29.911 23.514 4.899 51.407 1.019 63.913" style="fill:url(#aG)"/><path d="M2307.134 1109.824a.98.98 0 0 0 1.2-.2c13.817-15.174 19.782-30.566 17.728-45.75-3.407-25.198-28.185-41.114-28.436-41.271-.368-.29-1.063-.153-1.355.307a.98.98 0 0 0 .307 1.355c.243.153 24.263 15.6 27.538 39.888 1.967 14.576-3.832 29.43-17.236 44.147a.984.984 0 0 0 .254 1.524M2214 1079.514a.494.494 0 0 0 .714-.311c4.543-17.996 3.347-32.884-3.55-44.25-5.017-8.269-11.678-12.44-17.553-16.119-5.665-3.549-10.557-6.615-12.638-12.463-4.3-12.09 6.056-29.794 30.781-52.619a.492.492 0 1 0-.668-.722c-25.041 23.116-35.483 41.173-31.038 53.669 2.194 6.172 7.22 9.321 13.041 12.967 5.782 3.622 12.337 7.728 17.234 15.797 6.756 11.131 7.912 25.767 3.436 43.5a.494.494 0 0 0 .241.551M2230.232 925.985a.493.493 0 0 0 .795-.072c5.925-10.066-2.344-17.087-11.107-24.524-5.547-4.707-11.277-9.576-13.999-15.562-2.029-4.468-2.227-7.995-.589-10.486 2.786-4.243 10.067-4.161 10.141-4.162a.49.49 0 1 0 .018-.98c-.321-.006-7.89-.095-10.98 4.6-1.835 2.791-1.662 6.638.516 11.433 2.814 6.191 8.63 11.129 14.258 15.907 8.794 7.467 16.402 13.92 10.894 23.276a.49.49 0 0 0 .053.57" style="fill:#91b3fa"/><linearGradient id="aH" x1="5996.372" x2="6083.775" y1="-2533.102" y2="-2473.733" gradientTransform="rotate(23.074 -4266.088 -10179.203)" gradientUnits="userSpaceOnUse"><stop offset="0" style="stop-color:#ff928e"/><stop offset="1" style="stop-color:#feb3b1"/></linearGradient><path d="M2202.475 923.2s13.547-11.052 18.233-1.65c4.686 9.403-12.173 11.995-18.534 12.451z" style="fill:url(#aH)"/><path d="M379.012 621.792c-52.404 18.768-103.24 65.752-96.162 125.732 6.019 51.005 64.546 66.062 100.051 71.437a41.02 41.02 0 0 1 25.327 14.258c15.378 18.385 48.319 49.026 84.47 28.629 2.633-1.486 1.456-5.53-1.565-5.41-9.61.381-23.25-1.002-32.532-10.033-12.643-12.301-8.065-33.641 8.274-40.289 30.922-12.58 89.269-46.83 81.714-124.449-10.217-104.972-169.577-59.875-169.577-59.875" style="fill:#fff"/><linearGradient id="aI" x1="357.872" x2="467.753" y1="717.102" y2="717.102" gradientUnits="userSpaceOnUse"><stop offset="0" style="stop-color:#fe7062"/><stop offset="1" style="stop-color:#ff928e"/></linearGradient><path d="M410.923 705.511s2.58-35.095 37.564-29.295c33.141 5.495 22.531 50.837-24.162 79.693a18.33 18.33 0 0 1-16.808 1.26c-20.501-8.717-68.251-33.682-41.914-68.353 17.007-22.39 45.32 16.695 45.32 16.695" style="fill:url(#aI)"/></svg>