<?xml version="1.0" encoding="UTF-8"?>
<svg xmlns="http://www.w3.org/2000/svg" xmlns:xlink="http://www.w3.org/1999/xlink" width="16px" height="16px"
     viewBox="0 0 16 16" version="1.1">
    <g id="surface1">
        <path style=" stroke:none;fill-rule:nonzero;fill:rgb(3.137255%,5.098039%,7.058824%);fill-opacity:1;"
              d="M 12.125 15.191406 L 10.476562 15.964844 C 10.777344 15.523438 11.078125 15.402344 11.558594 14.996094 C 11.792969 14.746094 11.914062 14.578125 12.125 14.242188 Z M 12.125 15.191406 "/>
        <path style=" stroke:none;fill-rule:nonzero;fill:rgb(19.215687%,47.843137%,75.686276%);fill-opacity:1;"
              d="M 1.699219 12.625 C 0.898438 11.554688 0.578125 10.878906 0.230469 9.546875 L 2.425781 9.546875 C 2.515625 9.484375 2.554688 9.441406 2.566406 9.320312 C 2.546875 9.273438 2.570312 9.226562 2.496094 9.160156 C 2.457031 9.121094 2.390625 9.121094 2.320312 9.089844 L 2.054688 9.003906 L 0.230469 9.003906 C 0.128906 8.769531 0.0859375 8.628906 0.0546875 8.351562 L 0 7.226562 C 0.0351562 6.21875 0.132812 5.910156 0.230469 5.414062 C 0.402344 6.457031 0.546875 6.980469 0.9375 7.734375 C 1.664062 8.628906 2.207031 9.019531 3.363281 9.566406 L 7.433594 9.566406 C 7.644531 9.566406 7.824219 9.582031 7.824219 9.96875 C 7.824219 10.355469 7.679688 10.355469 7.433594 10.355469 L 3.152344 10.355469 L 3.152344 10.796875 L 7.929688 10.847656 C 8.160156 10.847656 8.175781 10.847656 8.175781 11.289062 C 8.175781 11.550781 8.125 11.550781 7.929688 11.550781 L 3.152344 11.550781 L 3.152344 11.9375 L 3.804688 11.9375 C 3.679688 12.269531 3.578125 12.414062 3.363281 12.625 Z M 1.699219 12.625 "/>
        <path style=" stroke:none;fill-rule:nonzero;fill:rgb(53.333336%,73.333335%,92.941177%);fill-opacity:1;"
              d="M 4.78125 6.488281 L 7.328125 8.949219 C 5.976562 8.953125 5.40625 9.042969 3.628906 8.984375 C 3.203125 8.914062 2.796875 8.703125 2.265625 8.28125 C 1.859375 7.957031 1.417969 7.488281 1.292969 7.121094 C 1.117188 6.875 1.011719 6.503906 0.957031 6.136719 C 0.886719 5.960938 0.886719 5.539062 0.886719 5.132812 C 0.871094 4.441406 0.96875 4.097656 1.203125 3.585938 C 1.488281 2.976562 1.765625 2.667969 2.265625 2.164062 C 2.8125 1.585938 3.195312 1.289062 3.984375 0.792969 C 4.78125 0.351562 5.214844 0.222656 5.984375 0 C 5.097656 0.390625 4.6875 0.699219 4.160156 1.441406 C 3.789062 1.925781 3.640625 2.25 3.523438 2.953125 C 3.445312 3.878906 3.476562 4.355469 3.664062 5.132812 C 3.894531 5.710938 4.066406 5.996094 4.480469 6.398438 C 4.597656 6.417969 4.667969 6.429688 4.78125 6.488281 Z M 4.78125 6.488281 "/>
        <path style=" stroke:none;fill-rule:nonzero;fill:rgb(3.137255%,5.098039%,7.058824%);fill-opacity:1;"
              d="M 15.027344 7.523438 C 14.675781 7.039062 14.375 6.835938 13.734375 6.539062 L 15.894531 6.539062 C 16 6.980469 16 7.261719 16 7.71875 C 15.964844 8.40625 15.941406 8.773438 15.894531 9.40625 L 15.890625 9.398438 C 15.722656 8.925781 15.628906 8.65625 15.398438 8.175781 C 15.289062 7.933594 15.210938 7.792969 15.027344 7.523438 Z M 15.027344 7.523438 "/>
        <path style=" stroke:none;fill-rule:nonzero;fill:rgb(53.333336%,73.333335%,92.941177%);fill-opacity:1;"
              d="M 15.0625 11.746094 C 14.375 13.078125 13.859375 13.691406 12.742188 14.574219 C 12.730469 14.214844 12.65625 14.039062 12.671875 13.574219 C 12.671875 13.574219 12.734375 12.460938 12.742188 11.746094 C 12.699219 11.15625 12.671875 10.886719 12.601562 10.671875 C 12.394531 10.003906 12.175781 9.664062 11.574219 9.125 L 10.441406 7.980469 L 8.921875 6.539062 L 12.511719 6.539062 C 12.777344 6.566406 12.910156 6.59375 13.097656 6.679688 C 13.800781 6.945312 14.175781 7.15625 14.726562 7.839844 C 15.277344 8.703125 15.421875 9.195312 15.378906 10.074219 C 15.386719 10.84375 15.3125 11.207031 15.0625 11.746094 Z M 15.0625 11.746094 "/>
        <path style=" stroke:none;fill-rule:nonzero;fill:rgb(19.215687%,47.843137%,75.686276%);fill-opacity:1;"
              d="M 7.21875 14.773438 L 6.28125 15.6875 C 6.886719 15.90625 7.300781 15.957031 8.140625 15.953125 C 8.871094 16.015625 9.226562 15.980469 9.765625 15.792969 C 10.15625 15.5 10.371094 15.390625 10.777344 15 C 11.421875 14.539062 11.71875 14.125 12.15625 13.453125 C 12.535156 12.601562 12.605469 12.066406 12.351562 10.957031 C 12.15625 10.175781 11.925781 9.792969 11.289062 9.21875 L 7.253906 5.277344 C 6.839844 4.824219 6.703125 4.527344 6.6875 3.90625 C 6.703125 3.378906 6.785156 3.09375 7.128906 2.625 C 7.5 2.261719 7.8125 2.117188 8.617188 2.007812 L 13.730469 2.007812 C 12.394531 0.890625 11.675781 0.410156 9.820312 0.128906 C 9.070312 0.0117188 8.675781 -0.0117188 7.996094 0.00390625 C 7.265625 0.0507812 6.722656 0.015625 6.160156 0.335938 L 5.378906 0.914062 C 4.902344 1.40625 4.5625 1.972656 4.332031 2.464844 C 4.117188 3.191406 4.078125 3.585938 4.121094 4.277344 C 4.203125 4.925781 4.316406 5.21875 4.597656 5.664062 L 9.238281 10.324219 C 9.644531 10.773438 9.824219 11.011719 9.890625 11.363281 C 9.96875 12.101562 9.921875 12.488281 9.539062 13.101562 C 9.277344 13.449219 9.125 13.570312 8.847656 13.699219 L 8.03125 14.050781 Z M 7.21875 14.773438 "/>
        <path style=" stroke:none;fill-rule:nonzero;fill:rgb(19.215687%,47.843137%,75.686276%);fill-opacity:1;"
              d="M 8.972656 5.871094 L 15.980469 5.871094 L 15.894531 5.433594 L 15.734375 5.011719 L 15.574219 4.625 L 15.363281 4.21875 L 15.132812 3.816406 L 14.867188 3.394531 L 14.546875 2.953125 L 14.140625 2.53125 L 8.972656 2.53125 C 8.707031 2.53125 8.617188 2.636719 8.601562 2.882812 C 8.589844 3.082031 8.621094 3.253906 8.8125 3.304688 L 12.742188 3.304688 L 12.742188 3.78125 L 8.390625 3.78125 C 8.140625 3.851562 8.089844 3.921875 8.035156 4.132812 C 8.035156 4.359375 8.113281 4.5 8.28125 4.589844 L 12.742188 4.589844 L 12.742188 5.011719 L 8.972656 5.011719 C 8.730469 5.097656 8.644531 5.191406 8.621094 5.46875 C 8.65625 5.714844 8.699219 5.789062 8.972656 5.871094 Z M 8.972656 5.871094 "/>
        <path style=" stroke:none;fill-rule:nonzero;fill:rgb(3.137255%,5.098039%,7.058824%);fill-opacity:1;"
              d="M 7.789062 13.46875 L 5.71875 15.457031 L 4.847656 15.121094 L 7.113281 12.941406 C 7.34375 12.800781 7.488281 12.855469 7.679688 12.941406 C 7.8125 13.164062 7.832031 13.28125 7.789062 13.46875 Z M 7.789062 13.46875 "/>
        <path style=" stroke:none;fill-rule:nonzero;fill:rgb(3.137255%,5.098039%,7.058824%);fill-opacity:1;"
              d="M 6.832031 12.695312 C 6.621094 12.941406 4.425781 14.945312 4.425781 14.945312 L 3.804688 14.507812 C 3.804688 14.507812 5.980469 12.253906 6.195312 12.113281 C 6.40625 11.972656 6.574219 11.996094 6.832031 12.113281 C 6.972656 12.269531 7.042969 12.449219 6.832031 12.695312 Z M 6.832031 12.695312 "/>
        <path style=" stroke:none;fill-rule:nonzero;fill:rgb(3.137255%,5.098039%,7.058824%);fill-opacity:1;"
              d="M 3.503906 14.171875 L 3.453125 14.3125 C 2.972656 14.015625 2.691406 13.75 2.230469 13.292969 L 3.238281 13.257812 C 3.558594 13.027344 3.734375 12.863281 4.035156 12.5 C 4.25 12.273438 4.382812 12.167969 4.636719 12.027344 C 4.875 11.964844 4.984375 11.980469 5.132812 12.113281 C 5.28125 12.253906 5.296875 12.359375 5.222656 12.589844 C 5.035156 12.792969 4.921875 12.910156 4.691406 13.132812 C 4.503906 13.296875 4.390625 13.417969 4.160156 13.679688 C 3.925781 13.875 3.78125 13.984375 3.503906 14.171875 Z M 3.503906 14.171875 "/>
    </g>
</svg>
