<svg width="592" height="183" viewBox="0 0 592 183" fill="none" xmlns="http://www.w3.org/2000/svg">
<path d="M0 121.464L18 95.4637L33 110.464C37.7133 113.214 40.9281 114.499 48.5 115.964C54.5749 116.492 57.8701 116.436 63 113.964C67.7162 110.503 70.0367 108.412 70.5 102.964C70.8625 98.885 70.5756 96.4666 67.5 91.4637C62.8733 88.3689 59.9044 86.7949 53.5 84.4637C46.4666 82.2776 42.849 81.2877 37 79.9637C30.7509 78.8562 28 77.876 22.5 74.4637C16.504 70.7436 13.9722 67.4508 9.5 60.4637C8.02132 55.1075 7.2446 53.5525 6 47.9637C4.99788 43.4637 5.49072 38.5666 6 35.4637C6.77222 29.2361 9 26.4637 12.5 20.4637C15.9999 14.4638 18.4999 12.2763 23.9997 7.46393L24 7.46367C28 3.96365 34 1.63431 44 0.463669C51.3934 -0.401838 55.954 0.0476679 63 0.963686C71.5925 2.01122 76.2044 3.484 84 7.96369C90.5527 11.4392 93.6712 13.7313 99 17.9637L82 40.9637L70.5 30.9637C65.7833 28.3283 62.989 27.1404 57 26.9637H44.5C40.4502 28.6064 38.3415 30.3268 35 35.4637C34.349 40.2441 34.6099 42.7125 37 46.4637C40.5844 50.7145 42.6934 51.8974 46.5 53.4637C55.7159 57.0134 60.9782 58.5085 70.5 60.4637C79.5742 62.8702 83.984 65.0231 90.5 70.4637C96.5 76.4637 99 79.9637 100.5 86.4637V104.464C98.5941 114.311 96.7651 119.28 90.5 125.964C85.2382 132.285 80.8534 135.134 70.5 138.964C61.7722 141.715 56.5008 142.329 46.5 141.964C37.3649 141.515 32.2216 140.401 23 136.464C17.9706 134.406 15.3057 132.947 11 129.464L0 121.464Z" fill="#479CF2"/>
<path fill-rule="evenodd" clip-rule="evenodd" d="M159.355 82.5002C125.906 81.5335 109.609 88.0002 105.304 107.5C103.748 127.374 107.973 134.577 122.524 142C135.439 147 147.397 143.5 159.355 133V142H193.317C188.133 137.22 186.249 134.19 185.186 128V82.5002C185.186 63.0002 180.402 51.5002 166.53 45.0002C144.049 36.0002 129.626 39.4364 105.304 53.0002L118.697 75.0002C123.779 67.8296 131.134 66.0002 141.179 64.5002C150.294 64.5275 154.201 66.3918 159.355 72.5002V82.5002ZM158.141 114.5C152.879 119 148.096 120.5 141.878 120.5C136.969 120.471 134.48 119.835 131.833 114.5C131.561 108.748 132.426 106.18 136.138 103C142.189 100.268 148.032 99.4234 159.098 99V107C159.094 110.473 159.033 112.335 158.141 114.5Z" fill="#479CF2"/>
<path fill-rule="evenodd" clip-rule="evenodd" d="M356.817 80.5002C321.853 79.5335 304.817 86.0002 300.317 105.5C298.692 125.374 303.108 132.577 318.317 140C331.817 145 344.317 141.5 356.817 131V140H392.317C386.898 135.22 384.928 132.19 383.817 126V80.5002C383.817 61.0002 378.817 49.5002 364.317 43.0002C340.817 34.0002 325.741 37.4364 300.317 51.0002L314.317 73.0002C319.629 65.8296 327.317 64.0002 337.817 62.5002C347.345 62.5275 351.429 64.3918 356.817 70.5002V80.5002ZM355.548 112.5C350.048 117 345.048 118.5 338.548 118.5C333.417 118.471 330.816 117.835 328.048 112.5C327.764 106.748 328.669 104.18 332.548 101C338.874 98.2676 344.981 97.4234 356.548 97V105C356.544 108.473 356.48 110.335 355.548 112.5Z" fill="#479CF2"/>
<path fill-rule="evenodd" clip-rule="evenodd" d="M555.817 80.5002C520.853 79.5335 503.817 86.0002 499.317 105.5C497.692 125.374 502.108 132.577 517.317 140C530.817 145 543.317 141.5 555.817 131V140H591.317C585.898 135.22 583.928 132.19 582.817 126V80.5002C582.817 61.0002 577.817 49.5002 563.317 43.0002C539.817 34.0002 524.741 37.4364 499.317 51.0002L513.317 73.0002C518.629 65.8296 526.317 64.0002 536.817 62.5002C546.345 62.5275 550.429 64.3918 555.817 70.5002V80.5002ZM554.548 112.5C549.048 117 544.048 118.5 537.548 118.5C532.417 118.471 529.816 117.835 527.048 112.5C526.764 106.748 527.669 104.18 531.548 101C537.874 98.2676 543.981 97.4234 555.548 97V105C555.544 108.473 555.48 110.335 554.548 112.5Z" fill="#479CF2"/>
<path fill-rule="evenodd" clip-rule="evenodd" d="M262.511 134.5V144H300.011C295.316 139.261 293.14 136.748 290.011 132.5V2C288.249 3.09385 285.535 3.47615 279.511 4H255.011C258.647 7.70387 260.1 9.69477 261.011 13L262.011 49C245.827 41.6078 236.742 40.9773 220.511 47.5C202.919 57.693 197.554 66.9976 193.511 88C191.873 103.331 193.953 111.652 203.011 126C209.459 136.262 215.479 140.023 229.511 144C243.675 145.592 253.511 142 262.511 134.5ZM262.281 73.6728V110.673C256.953 116.503 252.649 118.106 242.781 118.173C232.281 116.673 226.781 110.673 223.281 101.173C221.814 93.1484 221.631 88.7847 223.281 80.5C223.428 80.2685 223.573 80.04 223.717 79.8146C227.23 74.2794 229.594 70.5554 237.281 67.6728C243.308 66.7454 246.458 66.8066 251.781 67.6728C257.395 68.8218 259.521 70.2716 262.281 73.6728Z" fill="#479CF2"/>
<path fill-rule="evenodd" clip-rule="evenodd" d="M461.511 49.8716V40.3716H499.011C494.316 45.1106 492.14 47.6239 489.011 51.8716V182.372C487.249 181.278 484.535 180.895 478.511 180.372H454.011C457.647 176.668 459.1 174.677 460.011 171.372L461.011 135.372C444.827 142.764 435.742 143.394 419.511 136.872C401.919 126.679 396.554 117.374 392.511 96.3716C390.873 81.0406 392.952 72.72 402.011 58.3716C408.459 48.1099 414.478 44.3488 428.511 40.3716C442.675 38.7791 452.511 42.3716 461.511 49.8716ZM461.281 110.699V73.6988C455.953 67.8689 451.649 66.2658 441.781 66.1988C431.281 67.6988 425.781 73.6988 422.281 83.1988C420.814 91.2232 420.631 95.5869 422.281 103.872C422.428 104.103 422.573 104.332 422.716 104.557C426.23 110.092 428.594 113.816 436.281 116.699C442.308 117.626 445.458 117.565 450.781 116.699C456.395 115.55 458.521 114.1 461.281 110.699Z" fill="#479CF2"/>
</svg>
